<?xml version="1.0" encoding="UTF-8" standalone="no"?>
<svg
   xmlns:dc="http://purl.org/dc/elements/1.1/"
   xmlns:cc="http://creativecommons.org/ns#"
   xmlns:rdf="http://www.w3.org/1999/02/22-rdf-syntax-ns#"
   xmlns:svg="http://www.w3.org/2000/svg"
   xmlns="http://www.w3.org/2000/svg"
   xmlns:sodipodi="http://sodipodi.sourceforge.net/DTD/sodipodi-0.dtd"
   xmlns:inkscape="http://www.inkscape.org/namespaces/inkscape"
   width="521px"
   height="235px"
   viewBox="0 0 521 235"
   version="1.1"
   id="svg2"
   inkscape:version="0.91 r13725"
   sodipodi:docname="data-error-eacces.svg">
  <metadata
     id="metadata35">
    <rdf:RDF>
      <cc:Work
         rdf:about="">
        <dc:format>image/svg+xml</dc:format>
        <dc:type
           rdf:resource="http://purl.org/dc/dcmitype/StillImage" />
      </cc:Work>
    </rdf:RDF>
  </metadata>
  <defs
     id="defs33" />
  <sodipodi:namedview
     pagecolor="#ffffff"
     bordercolor="#666666"
     borderopacity="1"
     objecttolerance="10"
     gridtolerance="10"
     guidetolerance="10"
     inkscape:pageopacity="0"
     inkscape:pageshadow="2"
     inkscape:window-width="1429"
     inkscape:window-height="720"
     id="namedview31"
     showgrid="false"
     inkscape:zoom="0.62763916"
     inkscape:cx="263.68655"
     inkscape:cy="53.769114"
     inkscape:window-x="2239"
     inkscape:window-y="399"
     inkscape:window-maximized="0"
     inkscape:current-layer="svg2" />
  <!-- Generator: Sketch 59 (86127) - https://sketch.com -->
  <title
     id="title4">Page 1</title>
  <desc
     id="desc6">Created with Sketch.</desc>
  <path
     d="m 34.796551,189.80432 c -1.460043,0 -2.703249,0.98013 -2.953817,2.33173 l -0.30518,1.70815 -1.726674,0.58331 c -2.507291,0.79514 -4.169716,2.95382 -4.169716,5.38104 0,3.11494 2.727342,5.64807 6.081104,5.64807 l 28.442735,0 c 2.929724,0 5.313337,-2.21239 5.313337,-4.93349 0,-2.67485 -2.433405,-4.93498 -5.313337,-4.93498 l -3.225266,0 0.160621,-2.99411 -0.0016,-0.14023 c 0,-4.56351 -3.93521,-8.2185 -8.771503,-8.2185 -3.37625,0 -6.490688,1.77379 -7.936275,4.51876 l -1.418282,2.6301 -2.818895,-1.30834 c -0.422433,-0.17454 -0.888233,-0.27151 -1.357246,-0.27151 m 25.44555,20.06365 -28.519833,0 c -5.973488,0 -10.832268,-4.51279 -10.832268,-10.05942 0,-4.00557 2.566721,-7.59641 6.474625,-9.17776 1.002274,-3.03886 3.99464,-5.16621 7.431926,-5.16621 0.74528,0 1.432738,0.12084 2.030247,0.28195 2.459105,-3.68482 6.744468,-5.92257 11.500451,-5.92257 3.636455,0 7.049648,1.32326 9.606731,3.72809 2.251904,2.11393 3.578632,4.83055 3.803501,7.73813 4.804169,0.70415 8.490417,4.57545 8.490417,9.23295 0,5.15279 -4.479715,9.34484 -9.985797,9.34484"
     id="Fill-3-Copy"
     inkscape:connector-curvature="0"
     style="fill:#303e51;fill-rule:evenodd;stroke:none;stroke-width:1" />
  <path
     d="m 7.2176315,113.74649 c -1.01811,0 -1.9745163,0.6343 -2.3352452,1.6487 -0.4568442,1.28641 0.2183359,2.70585 1.5046193,3.16316 0.6217828,0.22094 1.2945897,0.18768 1.8914537,-0.0974 0.5956774,-0.28389 1.0465885,-0.78277 1.2684843,-1.40638 l 0,-0.001 c 0.2207091,-0.6236 0.1862975,-1.29591 -0.096115,-1.89338 -0.2835994,-0.59747 -0.7831615,-1.04766 -1.4073175,-1.26978 -0.2729199,-0.0974 -0.5517728,-0.14373 -0.8258793,-0.14373 m 0.00237,9.7033 c -0.8140133,0 -1.6315864,-0.13897 -2.420681,-0.42049 -3.7484956,-1.33392 -5.71470554,-5.47228 -4.38214441,-9.22341 1.33256111,-3.7547 5.46907761,-5.72411 9.21401341,-4.38662 1.8155102,0.64617 3.2726652,1.96109 4.0997312,3.70362 0.828253,1.74134 0.927928,3.70243 0.282413,5.52098 -0.644328,1.81737 -1.95909,3.27363 -3.699844,4.10273 -0.9836987,0.468 -2.0350336,0.70319 -3.0934882,0.70319"
     id="Fill-20"
     inkscape:connector-curvature="0"
     style="fill:#303e51;fill-rule:evenodd;stroke:none;stroke-width:1" />
  <path
     d="m 398.21458,224.74534 c -1.3646,0 -2.47527,1.1118 -2.47527,2.4766 0,1.36599 1.11067,2.47779 2.47527,2.47779 1.3646,0 2.47526,-1.1118 2.47526,-2.47779 0,-1.3648 -1.11066,-2.4766 -2.47526,-2.4766 m 0,9.69973 c -3.9787,0 -7.21458,-3.24037 -7.21458,-7.22313 0,-3.98157 3.23588,-7.22194 7.21458,-7.22194 3.9787,0 7.21458,3.24037 7.21458,7.22194 0,3.98276 -3.23588,7.22313 -7.21458,7.22313"
     id="Fill-21"
     inkscape:connector-curvature="0"
     style="fill:#303e51;fill-rule:evenodd;stroke:none;stroke-width:1" />
  <path
     d="m 398.21458,133.74534 c -1.3646,0 -2.47527,1.1118 -2.47527,2.4766 0,1.36599 1.11067,2.47779 2.47527,2.47779 1.3646,0 2.47526,-1.1118 2.47526,-2.47779 0,-1.3648 -1.11066,-2.4766 -2.47526,-2.4766 m 0,9.69973 c -3.9787,0 -7.21458,-3.24037 -7.21458,-7.22313 0,-3.98157 3.23588,-7.22194 7.21458,-7.22194 3.9787,0 7.21458,3.24037 7.21458,7.22194 0,3.98276 -3.23588,7.22313 -7.21458,7.22313"
     id="Fill-21-Copy"
     inkscape:connector-curvature="0"
     style="fill:#303e51;fill-rule:evenodd;stroke:none;stroke-width:1" />
  <g
     id="g4156"
     transform="translate(6,18)">
    <path
       style="fill:#303e51;fill-rule:evenodd;stroke:none;stroke-width:1"
       inkscape:connector-curvature="0"
       id="Fill-22"
       d="m 118.09499,126.20248 4.35604,1.34342 -1.01692,-4.44719 -3.33912,3.10377 z m 7.58124,7.19225 c -0.23376,0 -0.46871,-0.0345 -0.69772,-0.10453 l -12.2019,-3.76183 c -0.80926,-0.24944 -1.42511,-0.91343 -1.61378,-1.73896 -0.18867,-0.82554 0.0783,-1.69146 0.69772,-2.26755 l 9.3576,-8.6984 c 0.6194,-0.57609 1.49987,-0.77921 2.31032,-0.52858 0.81046,0.24944 1.42393,0.91343 1.6126,1.73897 l 2.84549,12.45903 c 0.18867,0.82791 -0.0771,1.69146 -0.69773,2.26755 -0.44497,0.41336 -1.02285,0.6343 -1.6126,0.6343 l 0,0 z" />
  </g>
  <path
     d="m 33.602412,33.831365 3.653567,2.724858 0.5316,-4.530343 -4.185167,1.805485 z m 5.529595,9.456231 c -0.501936,0 -1.000311,-0.160355 -1.415624,-0.470376 L 27.478327,35.180728 c -0.67874,-0.506011 -1.037096,-1.336297 -0.937421,-2.178461 0.09849,-0.842164 0.638395,-1.567921 1.415624,-1.902886 l 11.726063,-5.057736 c 0.773669,-0.334965 1.674304,-0.229249 2.353044,0.276762 0.679927,0.507199 1.037096,1.337485 0.937421,2.179649 l -1.48682,12.693039 c -0.09849,0.842164 -0.639582,1.567922 -1.416811,1.902887 -0.301398,0.129472 -0.619409,0.193614 -0.93742,0.193614 l 0,0 z"
     id="Fill-23"
     inkscape:connector-curvature="0"
     style="fill:#303e51;fill-rule:evenodd;stroke:none;stroke-width:1" />
  <path
     d="m 436.14296,74.203003 3.65356,2.724859 0.5316,-4.530344 -4.18516,1.805485 z m 5.52959,9.456232 c -0.50194,0 -1.00031,-0.160356 -1.41562,-0.470377 l -10.23806,-7.636491 c -0.67874,-0.506012 -1.03709,-1.336297 -0.93742,-2.178461 0.0985,-0.842165 0.6384,-1.567922 1.41562,-1.902887 l 11.72607,-5.057736 c 0.77367,-0.334965 1.6743,-0.229249 2.35304,0.276762 0.67993,0.507199 1.0371,1.337485 0.93742,2.179649 l -1.48682,12.693039 c -0.0985,0.842164 -0.63958,1.567922 -1.41681,1.902887 -0.3014,0.129472 -0.61941,0.193615 -0.93742,0.193615 l 0,0 z"
     id="Fill-23-Copy"
     inkscape:connector-curvature="0"
     style="fill:#303e51;fill-rule:evenodd;stroke:none;stroke-width:1" />
  <path
     d="m 384.11703,19.514154 3.89509,-2.366772 -4.00132,-2.189988 0.10623,4.55676 z m 10.83908,-1.58458 c -0.18803,0.465391 -0.5234,0.867401 -0.96642,1.136334 l -10.91568,6.631884 c -0.72343,0.439761 -1.6275,0.460996 -2.371,0.05309 -0.74394,-0.406808 -1.2146,-1.179269 -1.23402,-2.025375 L 379.1722,10.958629 c -0.0207,-0.842815 0.41465,-1.6382625 1.13807,-2.0780241 0.72498,-0.4404201 1.6286,-0.4605518 2.3721,-0.05265 l 11.21181,6.1334521 c 0.74394,0.406807 1.21416,1.180362 1.23358,2.026477 0.007,0.327954 -0.0525,0.646836 -0.17165,0.94169 l 0,0 z"
     id="Fill-23-Copy-2"
     inkscape:connector-curvature="0"
     style="fill:#303e51;fill-rule:evenodd;stroke:none;stroke-width:1" />
  <path
     d="m 468.01821,38.698116 c -0.9659,0 -1.87365,-0.596286 -2.22608,-1.558419 l -4.67879,-12.797568 c -0.44973,-1.231769 0.18155,-2.594198 1.41088,-3.044381 1.22695,-0.44662 2.59036,0.181736 3.04127,1.413505 l 4.6788,12.797567 c 0.44972,1.231769 -0.18155,2.594198 -1.41088,3.044382 -0.26936,0.0974 -0.54347,0.144914 -0.8152,0.144914"
     id="Fill-24-Copy"
     inkscape:connector-curvature="0"
     style="fill:#303e51;fill-rule:evenodd;stroke:none;stroke-width:1" />
  <g
     id="g4152">
    <path
       style="fill:#303e51;fill-rule:evenodd;stroke:none;stroke-width:1"
       inkscape:connector-curvature="0"
       id="Fill-24"
       d="m 99.253211,42.453617 c -0.965899,0 -1.873654,-0.596285 -2.226077,-1.558419 L 92.348338,28.09763 c -0.449725,-1.231768 0.181551,-2.594197 1.410877,-3.044381 1.226953,-0.44662 2.590366,0.181736 3.041277,1.413505 l 4.678798,12.797568 c 0.44972,1.231769 -0.18155,2.594198 -1.41088,3.044381 -0.269359,0.0974 -0.543465,0.144914 -0.815199,0.144914" />
    <path
       style="fill:#303e51;fill-rule:evenodd;stroke:none;stroke-width:1"
       inkscape:connector-curvature="0"
       id="Fill-25"
       d="m 90.821082,38.094648 c -0.9659,0 -1.873655,-0.596285 -2.226078,-1.558419 -0.449724,-1.229393 0.181551,-2.59301 1.410878,-3.043194 l 12.785708,-4.68476 c 1.22695,-0.445432 2.59036,0.181737 3.04009,1.413505 0.44972,1.229394 -0.18155,2.59301 -1.41088,3.043194 l -12.784519,4.68476 c -0.26936,0.0974 -0.543466,0.144914 -0.815199,0.144914" />
  </g>
  <path
     d="m 459.58608,34.339147 c -0.9659,0 -1.87365,-0.596286 -2.22608,-1.558419 -0.44972,-1.229393 0.18156,-2.59301 1.41088,-3.043194 l 12.78571,-4.68476 c 1.22695,-0.445432 2.59036,0.181736 3.04009,1.413505 0.44972,1.229393 -0.18156,2.59301 -1.41088,3.043194 l -12.78452,4.68476 c -0.26936,0.0974 -0.54346,0.144914 -0.8152,0.144914"
     id="Fill-25-Copy"
     inkscape:connector-curvature="0"
     style="fill:#303e51;fill-rule:evenodd;stroke:none;stroke-width:1" />
  <g
     id="g4159"
     transform="translate(8,0)">
    <path
       style="fill:#303e51;fill-rule:evenodd;stroke:none;stroke-width:1"
       inkscape:connector-curvature="0"
       id="Fill-26"
       d="m 87.270429,98.451097 c -0.681113,0 -1.35748,-0.292204 -1.825003,-0.857606 l -8.69072,-10.490822 c -0.836558,-1.008459 -0.696539,-2.503923 0.309705,-3.340148 1.007431,-0.837413 2.503744,-0.69725 3.337929,0.311208 l 8.690719,10.490822 c 0.836559,1.008459 0.69654,2.503924 -0.310891,3.340149 -0.442605,0.368224 -0.978952,0.546397 -1.511739,0.546397" />
    <path
       style="fill:#303e51;fill-rule:evenodd;stroke:none;stroke-width:1"
       inkscape:connector-curvature="0"
       id="Fill-27"
       d="m 77.684889,97.5556 c -0.681113,0 -1.35748,-0.292204 -1.825004,-0.857606 -0.836559,-1.008459 -0.696539,-2.503924 0.310892,-3.340148 l 10.478937,-8.700778 c 1.006244,-0.836225 2.501371,-0.698438 3.336743,0.312396 0.836559,1.008459 0.696539,2.503924 -0.310891,3.340149 l -10.478938,8.69959 C 78.754023,97.377427 78.217676,97.5556 77.684889,97.5556" />
  </g>
  <path
     d="m 484.90655,150.98036 c -1.46004,0 -2.70325,0.98013 -2.95382,2.33173 l -0.30518,1.70815 -1.72667,0.58331 c -2.50729,0.79514 -4.16972,2.95382 -4.16972,5.38103 0,3.11495 2.72734,5.64808 6.08111,5.64808 l 28.44273,0 c 2.92973,0 5.31334,-2.21239 5.31334,-4.93349 0,-2.67485 -2.4334,-4.93498 -5.31334,-4.93498 l -3.22526,0 0.16062,-2.99411 -0.002,-0.14023 c 0,-4.56351 -3.93521,-8.2185 -8.7715,-8.2185 -3.37625,0 -6.49069,1.77379 -7.93628,4.51876 l -1.41828,2.6301 -2.81889,-1.30834 c -0.42244,-0.17454 -0.88824,-0.27151 -1.35725,-0.27151 m 25.44555,20.06365 -28.51983,0 c -5.97349,0 -10.83227,-4.51279 -10.83227,-10.05943 0,-4.00557 2.56672,-7.59641 6.47462,-9.17775 1.00228,-3.03886 3.99464,-5.16621 7.43193,-5.16621 0.74528,0 1.43274,0.12084 2.03025,0.28195 2.4591,-3.68482 6.74447,-5.92257 11.50045,-5.92257 3.63645,0 7.04965,1.32325 9.60673,3.72809 2.2519,2.11392 3.57863,4.83055 3.8035,7.73813 4.80417,0.70415 8.49042,4.57545 8.49042,9.23295 0,5.15279 -4.47972,9.34484 -9.9858,9.34484"
     id="Fill-3-Copy-2"
     inkscape:connector-curvature="0"
     style="fill:#303e51;fill-rule:evenodd;stroke:none;stroke-width:1" />
  <g
     id="g4237"
     transform="translate(-13,0)">
    <path
       style="fill:#ef3f3f;fill-rule:evenodd;stroke:none;stroke-width:1"
       inkscape:connector-curvature="0"
       id="Shape"
       d="m 273.45327,101.14286 c 7.92256,0 14.35247,6.4 14.35247,14.28571 0,1.85714 -0.37316,3.6 -1.03338,5.22857 L 295.15421,129 C 299.48865,125.4 302.90454,120.74286 305,115.42857 300.03404,102.88571 287.77704,94 273.42457,94 269.40587,94 265.55941,94.714286 262,96 l 6.20027,6.17143 c 1.63618,-0.65714 3.38718,-1.02857 5.253,-1.02857 l 0,0 z M 244.85,93.609474 l 6.498,6.479996 1.311,1.30737 c -4.731,3.66632 -8.436,8.55474 -10.659,14.18211 4.9305,12.47684 17.1,21.31579 31.35,21.31579 4.4175,0 8.6355,-0.85264 12.483,-2.38737 l 1.197,1.19368 L 295.3805,144 299,140.39053 248.4695,90 l -3.6195,3.609474 0,0 z M 260.54583,109 l 4.52084,4.30556 c -0.14584,0.58333 -0.23334,1.19444 -0.23334,1.80555 0,4.61111 3.90834,8.33333 8.75,8.33333 0.64167,0 1.28334,-0.0833 1.89584,-0.22222 L 280,127.52778 C 278.04583,128.44444 275.8875,129 273.58333,129 265.53333,129 259,122.77778 259,115.11111 c 0,-2.19444 0.58333,-4.25 1.54583,-6.11111 l 0,0 z M 273,107.02848 281.94322,116 282,115.5443 C 282,110.81646 278.19558,107 273.48265,107 L 273,107.0285 l 0,0 z" />
    <path
       style="fill:#303e51;fill-rule:evenodd;stroke:none;stroke-width:1"
       inkscape:connector-curvature="0"
       id="path29"
       d="m 201.45312,176.78906 145.33594,0 0,-114.281248 -145.33594,0 0,114.281248 z m 0,-120.492185 145.33594,0 0,-24.84375 -145.33594,0 0,24.84375 z M 194,183 l 159,0 0,-159 -159,0 0,159 z m 140.36719,-144.09375 0,7.453125 -99.375,0 0,-7.453125 99.375,0 z m -118.00782,0 0,7.453125 -7.45312,0 0,-7.453125 7.45312,0 z m 12.42188,0 0,7.453125 -6.21094,0 0,-7.453125 6.21094,0 z" />
  </g>
</svg>
