<?xml version="1.0" encoding="UTF-8" standalone="no"?>
<svg
   width="514.33746"
   height="233.9095"
   viewBox="0 0 514.33746 233.9095"
   version="1.1"
   id="svg28"
   sodipodi:docname="data-error-enoent.svg"
   inkscape:version="1.1.2 (0a00cf5339, 2022-02-04)"
   xmlns:inkscape="http://www.inkscape.org/namespaces/inkscape"
   xmlns:sodipodi="http://sodipodi.sourceforge.net/DTD/sodipodi-0.dtd"
   xmlns="http://www.w3.org/2000/svg"
   xmlns:svg="http://www.w3.org/2000/svg"
   xmlns:rdf="http://www.w3.org/1999/02/22-rdf-syntax-ns#"
   xmlns:cc="http://creativecommons.org/ns#"
   xmlns:dc="http://purl.org/dc/elements/1.1/">
  <defs
     id="defs32" />
  <sodipodi:namedview
     id="namedview30"
     pagecolor="#ffffff"
     bordercolor="#666666"
     borderopacity="1.0"
     inkscape:pageshadow="2"
     inkscape:pageopacity="0.0"
     inkscape:pagecheckerboard="0"
     showgrid="false"
     inkscape:zoom="2.6046065"
     inkscape:cx="254.16507"
     inkscape:cy="117.29219"
     inkscape:window-width="2560"
     inkscape:window-height="1376"
     inkscape:window-x="0"
     inkscape:window-y="27"
     inkscape:window-maximized="1"
     inkscape:current-layer="svg28"
     fit-margin-top="0"
     fit-margin-left="0"
     fit-margin-right="0"
     fit-margin-bottom="0" />
  <!-- Generator: Sketch 59 (86127) - https://sketch.com -->
  <title
     id="title2">Page 1</title>
  <desc
     id="desc4">Created with Sketch.</desc>
  <path
     d="m 34.796519,189.26875 c -1.460043,0 -2.703249,0.98013 -2.953817,2.33173 l -0.30518,1.70815 -1.726674,0.58331 c -2.507291,0.79514 -4.169716,2.95382 -4.169716,5.38104 0,3.11494 2.727342,5.64807 6.081104,5.64807 h 28.442735 c 2.929724,0 5.313337,-2.21239 5.313337,-4.93349 0,-2.67485 -2.433405,-4.93498 -5.313337,-4.93498 h -3.225266 l 0.160621,-2.99411 -0.0016,-0.14023 c 0,-4.56351 -3.93521,-8.2185 -8.771503,-8.2185 -3.37625,0 -6.490688,1.77379 -7.936275,4.51876 l -1.418282,2.6301 -2.818895,-1.30834 c -0.422433,-0.17454 -0.888233,-0.27151 -1.357246,-0.27151 m 25.44555,20.06365 H 31.722236 c -5.973488,0 -10.832268,-4.51279 -10.832268,-10.05942 0,-4.00557 2.566721,-7.59641 6.474625,-9.17776 1.002274,-3.03886 3.99464,-5.16621 7.431926,-5.16621 0.74528,0 1.432738,0.12084 2.030247,0.28195 2.459105,-3.68482 6.744468,-5.92257 11.500451,-5.92257 3.636455,0 7.049648,1.32326 9.606731,3.72809 2.251904,2.11393 3.578632,4.83055 3.803501,7.73813 4.804169,0.70415 8.490417,4.57545 8.490417,9.23295 0,5.15279 -4.479715,9.34484 -9.985797,9.34484"
     id="Fill-3-Copy"
     fill="#303e51"
     style="fill-rule:evenodd;stroke:none;stroke-width:1" />
  <path
     d="m 7.2176003,113.21092 c -1.018111,0 -1.974517,0.6343 -2.335246,1.6487 -0.456844,1.28641 0.218336,2.70585 1.50462,3.16316 0.621782,0.22094 1.294589,0.18768 1.891453,-0.0974 0.595678,-0.28389 1.046589,-0.78277 1.268485,-1.40638 v -0.001 c 0.220709,-0.6236 0.186297,-1.29591 -0.09611,-1.89338 -0.2836,-0.59747 -0.783162,-1.04766 -1.407318,-1.26978 -0.27292,-0.0974 -0.551773,-0.14373 -0.825879,-0.14373 m 0.0024,9.7033 c -0.814013,0 -1.631587,-0.13897 -2.420681,-0.42049 -3.7484961,-1.33392 -5.71470609,-5.47228 -4.38214509,-9.22341 1.33256099,-3.7547 5.46907809,-5.72411 9.21401409,-4.38662 1.8155097,0.64617 3.2726647,1.96109 4.0997307,3.70362 0.828253,1.74134 0.927928,3.70243 0.282413,5.52098 -0.644328,1.81737 -1.95909,3.27363 -3.699844,4.10273 -0.9836987,0.468 -2.0350337,0.70319 -3.0934877,0.70319"
     id="Fill-20"
     fill="#303e51"
     style="fill-rule:evenodd;stroke:none;stroke-width:1" />
  <path
     d="m 392.21455,224.20977 c -1.3646,0 -2.47527,1.1118 -2.47527,2.4766 0,1.36599 1.11067,2.47779 2.47527,2.47779 1.3646,0 2.47526,-1.1118 2.47526,-2.47779 0,-1.3648 -1.11066,-2.4766 -2.47526,-2.4766 m 0,9.69973 c -3.9787,0 -7.21458,-3.24037 -7.21458,-7.22313 0,-3.98157 3.23588,-7.22194 7.21458,-7.22194 3.9787,0 7.21458,3.24037 7.21458,7.22194 0,3.98276 -3.23588,7.22313 -7.21458,7.22313"
     id="Fill-21"
     fill="#303e51"
     style="fill-rule:evenodd;stroke:none;stroke-width:1" />
  <path
     d="m 392.21455,133.20977 c -1.3646,0 -2.47527,1.1118 -2.47527,2.4766 0,1.36599 1.11067,2.47779 2.47527,2.47779 1.3646,0 2.47526,-1.1118 2.47526,-2.47779 0,-1.3648 -1.11066,-2.4766 -2.47526,-2.4766 m 0,9.69973 c -3.9787,0 -7.21458,-3.24037 -7.21458,-7.22313 0,-3.98157 3.23588,-7.22194 7.21458,-7.22194 3.9787,0 7.21458,3.24037 7.21458,7.22194 0,3.98276 -3.23588,7.22313 -7.21458,7.22313"
     id="Fill-21-Copy"
     fill="#303e51"
     style="fill-rule:evenodd;stroke:none;stroke-width:1" />
  <path
     d="m 122.09496,125.66691 4.35604,1.34342 -1.01692,-4.44719 z m 7.58124,7.19225 c -0.23376,0 -0.46871,-0.0345 -0.69772,-0.10453 l -12.2019,-3.76183 c -0.80926,-0.24944 -1.42511,-0.91343 -1.61378,-1.73896 -0.18867,-0.82554 0.0783,-1.69146 0.69772,-2.26755 l 9.3576,-8.6984 c 0.6194,-0.57609 1.49987,-0.77921 2.31032,-0.52858 0.81046,0.24944 1.42393,0.91343 1.6126,1.73897 l 2.84549,12.45903 c 0.18867,0.82791 -0.0771,1.69146 -0.69773,2.26755 -0.44497,0.41336 -1.02285,0.6343 -1.6126,0.6343 z"
     id="Fill-22"
     fill="#303e51"
     style="fill-rule:evenodd;stroke:none;stroke-width:1" />
  <path
     d="m 45.60238,33.295793 3.653567,2.724858 0.5316,-4.530343 z m 5.529595,9.456231 c -0.501936,0 -1.000311,-0.160355 -1.415624,-0.470376 L 39.478295,34.645156 c -0.67874,-0.506011 -1.037096,-1.336297 -0.937421,-2.178461 0.09849,-0.842164 0.638395,-1.567921 1.415624,-1.902886 l 11.726063,-5.057736 c 0.773669,-0.334965 1.674304,-0.229249 2.353044,0.276762 0.679927,0.507199 1.037096,1.337485 0.937421,2.179649 l -1.48682,12.693039 c -0.09849,0.842164 -0.639582,1.567922 -1.416811,1.902887 -0.301398,0.129472 -0.619409,0.193614 -0.93742,0.193614 z"
     id="Fill-23"
     fill="#303e51"
     style="fill-rule:evenodd;stroke:none;stroke-width:1" />
  <path
     d="m 430.14293,73.667431 3.65356,2.724859 0.5316,-4.530344 z m 5.52959,9.456232 c -0.50194,0 -1.00031,-0.160356 -1.41562,-0.470377 l -10.23806,-7.636491 c -0.67874,-0.506012 -1.03709,-1.336297 -0.93742,-2.178461 0.0985,-0.842165 0.6384,-1.567922 1.41562,-1.902887 l 11.72607,-5.057736 c 0.77367,-0.334965 1.6743,-0.229249 2.35304,0.276762 0.67993,0.507199 1.0371,1.337485 0.93742,2.179649 l -1.48682,12.693039 c -0.0985,0.842164 -0.63958,1.567922 -1.41681,1.902887 -0.3014,0.129472 -0.61941,0.193615 -0.93742,0.193615 z"
     id="Fill-23-Copy"
     fill="#303e51"
     style="fill-rule:evenodd;stroke:none;stroke-width:1" />
  <path
     d="m 368.117,10.97858 3.89509,-2.3667717 -4.00132,-2.1899877 z m 10.83908,-1.5845798 c -0.18803,0.4653912 -0.5234,0.8674008 -0.96642,1.1363338 l -10.91568,6.631884 c -0.72343,0.439761 -1.6275,0.460996 -2.371,0.05309 -0.74394,-0.406808 -1.2146,-1.179268 -1.23402,-2.025374 L 363.17217,2.4230548 c -0.0207,-0.8428144 0.41465,-1.6382622 1.13807,-2.0780238 0.72498,-0.44042006 1.6286,-0.46055178 2.3721,-0.0526499 l 11.21181,6.1334516 c 0.74394,0.4068078 1.21416,1.1803622 1.23358,2.0264774 0.007,0.3279543 -0.0525,0.6468364 -0.17165,0.9416901 z"
     id="Fill-23-Copy-2"
     fill="#303e51"
     style="fill-rule:evenodd;stroke:none;stroke-width:1" />
  <g
     id="g927"
     transform="translate(-0.33126831,-0.5355716)">
    <path
       d="M 334,111.5 C 334,153.74783 299.74666,188 257.49738,188 215.24811,188 181,153.74783 181,111.5 181,69.25217 215.24811,35 257.49738,35 299.74666,35 334,69.25217 334,111.5 Z"
       id="Stroke-1"
       stroke="#ef3f3f"
       stroke-width="7"
       style="fill:none;fill-rule:evenodd" />
    <path
       d="m 277.125,95 h -14.5 c -1.99375,0 -3.60688,1.71 -3.60688,3.8 L 259,129.2 c 0,2.09 1.61313,3.8 3.60687,3.8 H 284.375 c 1.99375,0 3.625,-1.71 3.625,-3.8 V 106.4 Z M 281,125 h -15 v -4 h 15 z m 0,-7 h -15 v -4 h 15 z m -33.64706,9 c 1.46193,0 2.64706,1.11929 2.64706,2.5 0,1.38071 -1.18513,2.5 -2.64706,2.5 v 0 h -3.70588 C 242.18513,132 241,130.88071 241,129.5 c 0,-1.38071 1.18513,-2.5 2.64706,-2.5 v 0 z m -0.009,-15 c 1.46701,0 2.65625,1.11929 2.65625,2.5 0,1.38071 -1.18924,2.5 -2.65625,2.5 v 0 h -11.6875 C 234.18924,117 233,115.88071 233,114.5 c 0,-1.38071 1.18924,-2.5 2.65625,-2.5 v 0 z M 275,98 l 10,10 h -10 z m -27.75544,-1.998724 c 1.47636,-0.04562 2.70945,1.137865 2.75419,2.643393 0.0447,1.505531 -1.11582,2.762981 -2.59218,2.808601 v 0 l -17.65113,0.54545 c -1.47636,0.0456 -2.70945,-1.13786 -2.75419,-2.64339 -0.0447,-1.505527 1.11582,-2.762982 2.59218,-2.808604 v 0 z"
       id="Shape-Copy-5"
       fill="#ef3f3f"
       style="fill-rule:evenodd;stroke:none;stroke-width:1" />
  </g>
  <path
     d="m 462.01818,38.162544 c -0.9659,0 -1.87365,-0.596286 -2.22608,-1.558419 l -4.67879,-12.797568 c -0.44973,-1.231769 0.18155,-2.594198 1.41088,-3.044381 1.22695,-0.44662 2.59036,0.181736 3.04127,1.413505 l 4.6788,12.797567 c 0.44972,1.231769 -0.18155,2.594198 -1.41088,3.044382 -0.26936,0.0974 -0.54347,0.144914 -0.8152,0.144914"
     id="Fill-24-Copy"
     fill="#303e51"
     style="fill-rule:evenodd;stroke:none;stroke-width:1" />
  <g
     id="g931"
     transform="translate(11.999968,-0.5355716)">
    <path
       d="m 99.253211,42.453617 c -0.965899,0 -1.873654,-0.596285 -2.226077,-1.558419 L 92.348338,28.09763 c -0.449725,-1.231768 0.181551,-2.594197 1.410877,-3.044381 1.226953,-0.44662 2.590366,0.181736 3.041277,1.413505 l 4.678798,12.797568 c 0.44972,1.231769 -0.18155,2.594198 -1.41088,3.044381 -0.269359,0.0974 -0.543465,0.144914 -0.815199,0.144914"
       id="Fill-24"
       fill="#303e51"
       style="fill-rule:evenodd;stroke:none;stroke-width:1" />
    <path
       d="m 90.821082,38.094648 c -0.9659,0 -1.873655,-0.596285 -2.226078,-1.558419 -0.449724,-1.229393 0.181551,-2.59301 1.410878,-3.043194 l 12.785708,-4.68476 c 1.22695,-0.445432 2.59036,0.181737 3.04009,1.413505 0.44972,1.229394 -0.18155,2.59301 -1.41088,3.043194 l -12.784519,4.68476 c -0.26936,0.0974 -0.543466,0.144914 -0.815199,0.144914"
       id="Fill-25"
       fill="#303e51"
       style="fill-rule:evenodd;stroke:none;stroke-width:1" />
  </g>
  <path
     d="m 453.58605,33.803575 c -0.9659,0 -1.87365,-0.596286 -2.22608,-1.558419 -0.44972,-1.229393 0.18156,-2.59301 1.41088,-3.043194 l 12.78571,-4.68476 c 1.22695,-0.445432 2.59036,0.181736 3.04009,1.413505 0.44972,1.229393 -0.18156,2.59301 -1.41088,3.043194 l -12.78452,4.68476 c -0.26936,0.0974 -0.54346,0.144914 -0.8152,0.144914"
     id="Fill-25-Copy"
     fill="#303e51"
     style="fill-rule:evenodd;stroke:none;stroke-width:1" />
  <path
     d="m 87.270397,97.915525 c -0.681113,0 -1.35748,-0.292204 -1.825003,-0.857606 l -8.69072,-10.490822 c -0.836558,-1.008459 -0.696539,-2.503923 0.309705,-3.340148 1.007431,-0.837413 2.503744,-0.69725 3.337929,0.311208 l 8.690719,10.490822 c 0.836559,1.008459 0.69654,2.503924 -0.310891,3.340149 -0.442605,0.368224 -0.978952,0.546397 -1.511739,0.546397"
     id="Fill-26"
     fill="#303e51"
     style="fill-rule:evenodd;stroke:none;stroke-width:1" />
  <path
     d="m 77.684857,97.020028 c -0.681113,0 -1.35748,-0.292204 -1.825004,-0.857606 -0.836559,-1.008459 -0.696539,-2.503924 0.310892,-3.340148 l 10.478937,-8.700778 c 1.006244,-0.836225 2.501371,-0.698438 3.336743,0.312396 0.836565,1.008459 0.696545,2.503924 -0.310891,3.340149 l -10.478938,8.69959 c -0.442605,0.368224 -0.978952,0.546397 -1.511739,0.546397"
     id="Fill-27"
     fill="#303e51"
     style="fill-rule:evenodd;stroke:none;stroke-width:1" />
  <path
     d="m 478.90652,150.44479 c -1.46004,0 -2.70325,0.98013 -2.95382,2.33173 l -0.30518,1.70815 -1.72667,0.58331 c -2.50729,0.79514 -4.16972,2.95382 -4.16972,5.38103 0,3.11495 2.72734,5.64808 6.08111,5.64808 h 28.44273 c 2.92973,0 5.31334,-2.21239 5.31334,-4.93349 0,-2.67485 -2.4334,-4.93498 -5.31334,-4.93498 h -3.22526 l 0.16062,-2.99411 -0.002,-0.14023 c 0,-4.56351 -3.93521,-8.2185 -8.7715,-8.2185 -3.37625,0 -6.49069,1.77379 -7.93628,4.51876 l -1.41828,2.6301 -2.81889,-1.30834 c -0.42244,-0.17454 -0.88824,-0.27151 -1.35725,-0.27151 m 25.44555,20.06365 h -28.51983 c -5.97349,0 -10.83227,-4.51279 -10.83227,-10.05943 0,-4.00557 2.56672,-7.59641 6.47462,-9.17775 1.00228,-3.03886 3.99464,-5.16621 7.43193,-5.16621 0.74528,0 1.43274,0.12084 2.03025,0.28195 2.4591,-3.68482 6.74447,-5.92257 11.50045,-5.92257 3.63645,0 7.04965,1.32325 9.60673,3.72809 2.2519,2.11392 3.57863,4.83055 3.8035,7.73813 4.80417,0.70415 8.49042,4.57545 8.49042,9.23295 0,5.15279 -4.47972,9.34484 -9.9858,9.34484"
     id="Fill-3-Copy-2"
     fill="#303e51"
     style="fill-rule:evenodd;stroke:none;stroke-width:1" />
  <metadata
     id="metadata849">
    <rdf:RDF>
      <cc:Work
         rdf:about="">
        <dc:title>Page 1</dc:title>
      </cc:Work>
    </rdf:RDF>
  </metadata>
</svg>
