<?xml version="1.0" encoding="UTF-8" standalone="no"?>
<svg
   width="512.7417"
   height="165.88879"
   viewBox="0 0 512.74169 165.88879"
   version="1.1"
   id="svg31"
   sodipodi:docname="data-error-generic.svg"
   inkscape:version="1.1.1 (3bf5ae0d25, 2021-09-20)"
   xmlns:inkscape="http://www.inkscape.org/namespaces/inkscape"
   xmlns:sodipodi="http://sodipodi.sourceforge.net/DTD/sodipodi-0.dtd"
   xmlns="http://www.w3.org/2000/svg"
   xmlns:svg="http://www.w3.org/2000/svg"
   xmlns:rdf="http://www.w3.org/1999/02/22-rdf-syntax-ns#"
   xmlns:cc="http://creativecommons.org/ns#"
   xmlns:dc="http://purl.org/dc/elements/1.1/">
  <defs
     id="defs35" />
  <sodipodi:namedview
     id="namedview33"
     pagecolor="#ffffff"
     bordercolor="#666666"
     borderopacity="1.0"
     inkscape:pageshadow="2"
     inkscape:pageopacity="0.0"
     inkscape:pagecheckerboard="0"
     showgrid="false"
     fit-margin-top="0"
     fit-margin-left="0"
     fit-margin-right="0"
     fit-margin-bottom="0"
     inkscape:zoom="2.6765286"
     inkscape:cx="229.77524"
     inkscape:cy="79.767502"
     inkscape:window-width="2560"
     inkscape:window-height="1376"
     inkscape:window-x="0"
     inkscape:window-y="27"
     inkscape:window-maximized="1"
     inkscape:current-layer="svg31" />
  <!-- Generator: Sketch 59 (86127) - https://sketch.com -->
  <title
     id="title2">Page 1</title>
  <desc
     id="desc4">Created with Sketch.</desc>
  <path
     d="m 97.906551,136.82633 c -1.460044,0 -2.703249,0.98013 -2.953817,2.33173 l -0.30518,1.70815 -1.726674,0.58331 c -2.507291,0.79514 -4.169716,2.95382 -4.169716,5.38103 0,3.11495 2.727341,5.64808 6.081104,5.64808 H 123.275 c 2.92973,0 5.31334,-2.21239 5.31334,-4.93349 0,-2.67485 -2.43341,-4.93498 -5.31334,-4.93498 h -3.22526 l 0.16062,-2.99411 -0.002,-0.14023 c 0,-4.56351 -3.93521,-8.2185 -8.7715,-8.2185 -3.37625,0 -6.49069,1.77379 -7.93628,4.51876 l -1.41828,2.6301 -2.818893,-1.30834 c -0.422433,-0.17454 -0.888233,-0.27151 -1.357246,-0.27151 M 123.3521,156.88998 H 94.832268 C 88.85878,156.88998 84,152.37719 84,146.83055 c 0,-4.00557 2.566721,-7.59641 6.474625,-9.17775 1.002274,-3.03886 3.99464,-5.16621 7.431926,-5.16621 0.74528,0 1.432737,0.12084 2.030247,0.28195 2.459102,-3.68482 6.744472,-5.92257 11.500452,-5.92257 3.63645,0 7.04965,1.32325 9.60673,3.72809 2.2519,2.11392 3.57863,4.83055 3.8035,7.73813 4.80417,0.70415 8.49042,4.57545 8.49042,9.23295 0,5.15279 -4.47972,9.34484 -9.9858,9.34484"
     id="Fill-3-Copy"
     fill="#303e51"
     style="fill-rule:evenodd;stroke:none;stroke-width:1" />
  <path
     d="m 35.217632,92.59246 c -1.01811,0 -1.974517,0.634295 -2.335246,1.648693 -0.456844,1.286409 0.218336,2.705853 1.50462,3.163164 0.621782,0.220934 1.294589,0.187675 1.891453,-0.0974 0.595678,-0.283888 1.046589,-0.782773 1.268485,-1.406378 v -0.0012 c 0.220709,-0.623605 0.186297,-1.295911 -0.09612,-1.893384 -0.283599,-0.597473 -0.783161,-1.047657 -1.407317,-1.269779 -0.27292,-0.0974 -0.551773,-0.143726 -0.825879,-0.143726 m 0.0024,9.7033 c -0.814014,0 -1.631587,-0.13897 -2.420681,-0.42049 -3.748496,-1.33392 -5.714706,-5.472285 -4.382145,-9.223419 1.332561,-3.754698 5.469078,-5.724102 9.214014,-4.386618 1.81551,0.646174 3.272665,1.96109 4.099731,3.703622 0.828253,1.741343 0.927928,3.702433 0.282413,5.520985 -0.644328,1.81736 -1.95909,3.27363 -3.699844,4.10273 -0.983699,0.468 -2.035034,0.70319 -3.093488,0.70319"
     id="Fill-20"
     fill="#303e51"
     style="fill-rule:evenodd;stroke:none;stroke-width:1" />
  <path
     d="m 7.2145785,54.591305 c -1.3645995,0 -2.4752645,1.111799 -2.4752645,2.476604 0,1.365992 1.110665,2.477791 2.4752645,2.477791 1.3645995,0 2.4752649,-1.111799 2.4752649,-2.477791 0,-1.364805 -1.1106654,-2.476604 -2.4752649,-2.476604 m 0,9.699734 C 3.235881,64.291039 0,61.050667 0,57.067909 c 0,-3.981571 3.235881,-7.221943 7.2145785,-7.221943 3.9786975,0 7.2145785,3.240372 7.2145785,7.221943 0,3.982758 -3.235881,7.22313 -7.2145785,7.22313"
     id="Fill-21"
     fill="#303e51"
     style="fill-rule:evenodd;stroke:none;stroke-width:1" />
  <path
     d="m 424.21458,112.59131 c -1.3646,0 -2.47527,1.1118 -2.47527,2.4766 0,1.366 1.11067,2.47779 2.47527,2.47779 1.3646,0 2.47526,-1.11179 2.47526,-2.47779 0,-1.3648 -1.11066,-2.4766 -2.47526,-2.4766 m 0,9.69973 c -3.9787,0 -7.21458,-3.24037 -7.21458,-7.22313 0,-3.98157 3.23588,-7.22194 7.21458,-7.22194 3.9787,0 7.21458,3.24037 7.21458,7.22194 0,3.98276 -3.23588,7.22313 -7.21458,7.22313"
     id="Fill-21-Copy"
     fill="#303e51"
     style="fill-rule:evenodd;stroke:none;stroke-width:1" />
  <path
     d="m 401.99171,29.859164 4.35604,1.343424 -1.01693,-4.447197 z m 7.58124,7.192247 c -0.23377,0 -0.46871,-0.03445 -0.69773,-0.104528 l -12.20189,-3.761825 c -0.80927,-0.249442 -1.42512,-0.913433 -1.61379,-1.738967 -0.18867,-0.825535 0.0783,-1.691455 0.69773,-2.267548 l 9.35759,-8.698402 c 0.61941,-0.576093 1.49987,-0.77921 2.31033,-0.52858 0.81045,0.249442 1.42393,0.913433 1.6126,1.738968 l 2.84548,12.459039 c 0.18867,0.82791 -0.0771,1.691455 -0.69772,2.267547 -0.44498,0.413361 -1.02286,0.634296 -1.6126,0.634296 z"
     id="Fill-22"
     fill="#303e51"
     style="fill-rule:evenodd;stroke:none;stroke-width:1" />
  <path
     d="m 61.602412,12.677331 3.653567,2.724858 0.531601,-4.530343 z m 5.529595,9.456231 c -0.501936,0 -1.000311,-0.160355 -1.415624,-0.470376 L 55.478327,14.026694 c -0.67874,-0.506011 -1.037096,-1.336297 -0.937421,-2.178461 0.09849,-0.842164 0.638395,-1.567921 1.415624,-1.902886 L 67.682593,4.8876108 c 0.773669,-0.3349651 1.674304,-0.2292492 2.353044,0.2767619 0.679927,0.5071989 1.037096,1.3374848 0.937421,2.1796488 l -1.48682,12.6930395 c -0.09849,0.842164 -0.639582,1.567922 -1.416811,1.902887 -0.301398,0.129472 -0.619409,0.193614 -0.93742,0.193614 z"
     id="Fill-23"
     fill="#303e51"
     style="fill-rule:evenodd;stroke:none;stroke-width:1" />
  <path
     d="m 462.14296,53.048969 3.65356,2.724858 0.5316,-4.530343 z m 5.52959,9.456232 c -0.50194,0 -1.00031,-0.160356 -1.41562,-0.470377 l -10.23806,-7.636492 c -0.67874,-0.506011 -1.03709,-1.336296 -0.93742,-2.178461 0.0985,-0.842164 0.6384,-1.567921 1.41562,-1.902886 l 11.72607,-5.057736 c 0.77367,-0.334965 1.6743,-0.229249 2.35304,0.276762 0.67993,0.507199 1.0371,1.337485 0.93742,2.179649 l -1.48682,12.693039 c -0.0985,0.842164 -0.63958,1.567922 -1.41681,1.902887 -0.3014,0.129472 -0.61941,0.193615 -0.93742,0.193615 z"
     id="Fill-23-Copy"
     fill="#303e51"
     style="fill-rule:evenodd;stroke:none;stroke-width:1" />
  <path
     d="m 382.11703,159.36013 3.8951,-2.36677 -4.00132,-2.18999 z m 10.8391,-1.58458 c -0.18803,0.46539 -0.52341,0.8674 -0.96643,1.13633 l -10.91568,6.63189 c -0.72342,0.43976 -1.6275,0.46099 -2.37099,0.0531 -0.74395,-0.40681 -1.21462,-1.17927 -1.23403,-2.02537 l -0.29679,-12.76689 c -0.0208,-0.84281 0.41464,-1.63826 1.13808,-2.07802 0.72496,-0.44042 1.62859,-0.46055 2.37209,-0.0526 l 11.21181,6.13345 c 0.74394,0.40681 1.21416,1.18036 1.23358,2.02648 0.007,0.32795 -0.0525,0.64684 -0.17164,0.94169 z"
     id="Fill-23-Copy-2"
     fill="#303e51"
     style="fill-rule:evenodd;stroke:none;stroke-width:1" />
  <g
     id="g952"
     transform="translate(2)">
    <path
       d="m 127.25321,21.299583 c -0.9659,0 -1.87365,-0.596285 -2.22608,-1.558419 L 120.34834,6.9435963 c -0.44973,-1.2317689 0.18155,-2.5941979 1.41087,-3.0443814 1.22696,-0.4466202 2.59037,0.1817363 3.04128,1.4135052 l 4.6788,12.7975679 c 0.44972,1.231769 -0.18155,2.594198 -1.41088,3.044381 -0.26936,0.0974 -0.54346,0.144914 -0.8152,0.144914"
       id="Fill-24"
       fill="#303e51"
       style="fill-rule:evenodd;stroke:none;stroke-width:1" />
    <path
       d="m 118.37108,17.275577 c -0.9659,0 -1.87365,-0.596285 -2.22608,-1.558419 -0.44972,-1.229393 0.18156,-2.59301 1.41088,-3.043193 l 12.78571,-4.6847607 c 1.22695,-0.4454324 2.59036,0.1817364 3.04009,1.4135052 0.44972,1.2293935 -0.18155,2.5930105 -1.41088,3.0431935 l -12.78452,4.68476 c -0.26936,0.0974 -0.54346,0.144914 -0.8152,0.144914"
       id="Fill-25"
       fill="#303e51"
       style="fill-rule:evenodd;stroke:none;stroke-width:1" />
  </g>
  <g
     id="g948"
     transform="translate(12)">
    <path
       d="m 494.01821,17.544082 c -0.9659,0 -1.87365,-0.596286 -2.22608,-1.558419 L 487.11334,3.1880951 c -0.44973,-1.2317689 0.18155,-2.5941979 1.41088,-3.0443815 1.22695,-0.44662014 2.59036,0.18173639 3.04127,1.4135053 l 4.6788,12.7975681 c 0.44972,1.231768 -0.18155,2.594197 -1.41088,3.044381 -0.26936,0.0974 -0.54347,0.144914 -0.8152,0.144914"
       id="Fill-24-Copy"
       fill="#303e51"
       style="fill-rule:evenodd;stroke:none;stroke-width:1" />
    <path
       d="m 485.58608,13.185113 c -0.9659,0 -1.87365,-0.596285 -2.22608,-1.558419 -0.44972,-1.229394 0.18156,-2.5930105 1.41088,-3.0431941 l 12.78571,-4.6847602 c 1.22695,-0.4454323 2.59036,0.1817364 3.04009,1.4135052 0.44972,1.2293932 -0.18156,2.59301 -1.41088,3.0431936 l -12.78452,4.6847605 c -0.26936,0.0974 -0.54346,0.144914 -0.8152,0.144914"
       id="Fill-25-Copy"
       fill="#303e51"
       style="fill-rule:evenodd;stroke:none;stroke-width:1" />
  </g>
  <path
     d="m 115.27043,77.297063 c -0.68111,0 -1.35748,-0.292204 -1.825,-0.857606 l -8.69072,-10.490822 c -0.83656,-1.008459 -0.69654,-2.503923 0.3097,-3.340148 1.00743,-0.837413 2.50375,-0.69725 3.33793,0.311208 l 8.69072,10.490822 c 0.83656,1.008459 0.69654,2.503924 -0.31089,3.340149 -0.44261,0.368224 -0.97895,0.546397 -1.51174,0.546397"
     id="Fill-26"
     fill="#303e51"
     style="fill-rule:evenodd;stroke:none;stroke-width:1" />
  <path
     d="m 105.68489,76.401566 c -0.68111,0 -1.35748,-0.292204 -1.825,-0.857606 -0.83656,-1.008459 -0.69654,-2.503924 0.31089,-3.340148 l 10.47893,-8.700778 c 1.00625,-0.836225 2.50137,-0.698438 3.33675,0.312396 0.83656,1.008459 0.69654,2.503924 -0.31089,3.340149 l -10.47894,8.69959 c -0.44261,0.368224 -0.97895,0.546397 -1.51174,0.546397"
     id="Fill-27"
     fill="#303e51"
     style="fill-rule:evenodd;stroke:none;stroke-width:1" />
  <path
     d="m 468.90655,137.82633 c -1.46004,0 -2.70325,0.98013 -2.95382,2.33173 l -0.30518,1.70815 -1.72667,0.58331 c -2.50729,0.79514 -4.16972,2.95382 -4.16972,5.38103 0,3.11495 2.72734,5.64808 6.08111,5.64808 H 494.275 c 2.92973,0 5.31334,-2.21239 5.31334,-4.93349 0,-2.67485 -2.4334,-4.93498 -5.31334,-4.93498 h -3.22526 l 0.16062,-2.99411 -0.002,-0.14023 c 0,-4.56351 -3.93521,-8.2185 -8.7715,-8.2185 -3.37625,0 -6.49069,1.77379 -7.93628,4.51876 l -1.41828,2.6301 -2.81889,-1.30834 c -0.42244,-0.17454 -0.88824,-0.27151 -1.35725,-0.27151 m 25.44555,20.06365 h -28.51983 c -5.97349,0 -10.83227,-4.51279 -10.83227,-10.05943 0,-4.00557 2.56672,-7.59641 6.47462,-9.17775 1.00228,-3.03886 3.99464,-5.16621 7.43193,-5.16621 0.74528,0 1.43274,0.12084 2.03025,0.28195 2.4591,-3.68482 6.74447,-5.92257 11.50045,-5.92257 3.63645,0 7.04965,1.32325 9.60673,3.72809 2.2519,2.11392 3.57863,4.83055 3.8035,7.73813 4.80417,0.70415 8.49042,4.57545 8.49042,9.23295 0,5.15279 -4.47972,9.34484 -9.9858,9.34484"
     id="Fill-3-Copy-2"
     fill="#303e51"
     style="fill-rule:evenodd;stroke:none;stroke-width:1" />
  <g
     id="g938"
     transform="translate(-10.12915,-8.555603)">
    <path
       d="M 194.45312,164.78906 H 339.78906 V 50.507812 H 194.45312 Z m 0,-120.492185 H 339.78906 V 19.453125 H 194.45312 Z M 187,171 H 346 V 12 H 187 Z M 327.36719,26.90625 v 7.453125 h -99.375 V 26.90625 Z m -118.00782,0 v 7.453125 h -7.45312 V 26.90625 Z m 12.42188,0 v 7.453125 h -6.21094 V 26.90625 Z"
       id="path21"
       fill="#303e51"
       style="fill-rule:evenodd;stroke:none;stroke-width:1" />
    <path
       d="M 266.5,63 C 252.3985,63 241,74.3985 241,88.5 241,102.6015 252.3985,114 266.5,114 280.6015,114 292,102.6015 292,88.5 292,74.3985 280.6015,63 266.5,63 Z M 281,99.052 277.052,103 267,92.948 256.948,103 253,99.052 263.052,89 253,78.948 256.948,75 267,85.052 277.052,75 281,78.948 270.948,89 Z"
       id="Shape"
       fill="#ea5744"
       style="fill-rule:evenodd;stroke:none;stroke-width:1" />
    <rect
       id="Rectangle-2"
       fill="#34495e"
       x="235"
       y="130"
       width="64"
       height="6"
       style="fill-rule:evenodd;stroke:none;stroke-width:1" />
    <rect
       id="Rectangle-2-Copy"
       fill="#34495e"
       x="226"
       y="141"
       width="81"
       height="7"
       style="fill-rule:evenodd;stroke:none;stroke-width:1" />
  </g>
  <metadata
     id="metadata944">
    <rdf:RDF>
      <cc:Work
         rdf:about="">
        <dc:title>Page 1</dc:title>
      </cc:Work>
    </rdf:RDF>
  </metadata>
</svg>
