<?xml version="1.0" encoding="UTF-8"?>
<svg width="487px" height="259px" viewBox="0 0 487 259" version="1.1" xmlns="http://www.w3.org/2000/svg" xmlns:xlink="http://www.w3.org/1999/xlink">
    <!-- Generator: Sketch 57.1 (83088) - https://sketch.com -->
    <title>Page 1</title>
    <desc>Created with Sketch.</desc>
    <g id="Oneprovider----data-&amp;-transfer" stroke="none" stroke-width="1" fill="none" fill-rule="evenodd">
        <g id="Data_Tabs-_upload-Copy-4" transform="translate(-981.000000, -454.000000)" fill="#303E51">
            <g id="Page-1" transform="translate(981.000000, 454.000000)">
                <g id="Group-4">
                    <path d="M56.0005756,30.5987455 C55.0130833,30.5987455 54.085439,31.2132968 53.7355583,32.1961186 C53.2924528,33.442484 53.9473282,34.817744 55.1949292,35.2608194 C55.7980131,35.4748766 56.4505867,35.442653 57.0295012,35.1664501 C57.6072647,34.8913981 58.0446156,34.4080431 58.2598383,33.8038494 L58.2598383,33.8026985 C58.4739101,33.1985048 58.4405333,32.5471264 58.1666135,31.9682513 C57.8915428,31.3893761 57.4070041,30.9532058 56.8016183,30.7379978 C56.5369059,30.6436284 56.2664389,30.5987455 56.0005756,30.5987455 M56.0028775,40 C55.213344,40 54.4203578,39.8653511 53.6549937,39.5926008 C50.0192266,38.3002016 48.1121464,34.2906569 49.4046335,30.6562877 C50.6971205,27.018466 54.7092395,25.1103647 58.3415539,26.4062164 C60.1024667,27.0322762 61.5158007,28.3062618 62.3179943,29.9945518 C63.1213389,31.6816908 63.2180165,33.5817363 62.5919141,35.3436803 C61.9669627,37.1044735 60.6917395,38.5154097 59.0033349,39.3186996 C58.0492193,39.7721326 57.0295012,40 56.0028775,40" id="Fill-20"></path>
                    <path d="M247.000576,219.598745 C246.013083,219.598745 245.085439,220.213297 244.735558,221.196119 C244.292453,222.442484 244.947328,223.817744 246.194929,224.260819 C246.798013,224.474877 247.450587,224.442653 248.029501,224.16645 C248.607265,223.891398 249.044616,223.408043 249.259838,222.803849 L249.259838,222.802699 C249.47391,222.198505 249.440533,221.547126 249.166614,220.968251 C248.891543,220.389376 248.407004,219.953206 247.801618,219.737998 C247.536906,219.643628 247.266439,219.598745 247.000576,219.598745 M247.002877,229 C246.213344,229 245.420358,228.865351 244.654994,228.592601 C241.019227,227.300202 239.112146,223.290657 240.404633,219.656288 C241.69712,216.018466 245.70924,214.110365 249.341554,215.406216 C251.102467,216.032276 252.515801,217.306262 253.317994,218.994552 C254.121339,220.681691 254.218016,222.581736 253.591914,224.34368 C252.966963,226.104473 251.69174,227.51541 250.003335,228.3187 C249.049219,228.772133 248.029501,229 247.002877,229" id="Fill-20-Copy"></path>
                    <path d="M480,160.599128 C478.675987,160.599128 477.598355,161.676671 477.598355,162.999424 C477.598355,164.323329 478.675987,165.400872 480,165.400872 C481.324013,165.400872 482.401645,164.323329 482.401645,162.999424 C482.401645,161.676671 481.324013,160.599128 480,160.599128 M480,170 C476.139638,170 473,166.859469 473,162.999424 C473,159.140531 476.139638,156 480,156 C483.860362,156 487,159.140531 487,162.999424 C487,166.859469 483.860362,170 480,170" id="Fill-21"></path>
                    <path d="M246.015253,56.8936333 L250.385962,58.2210157 L249.365614,53.8269221 L246.015253,56.8936333 Z M253.622025,64 C253.387476,64 253.151736,63.9659646 252.921949,63.89672 L240.678964,60.1798144 C239.866971,59.9333508 239.249048,59.2772882 239.059742,58.4616111 C238.870435,57.645934 239.138321,56.7903533 239.759817,56.2211398 L249.148924,47.6266024 C249.770419,47.0573889 250.653848,46.8566971 251.467031,47.1043343 C252.280214,47.3507979 252.895756,48.0068605 253.085062,48.8225376 L255.940132,61.1328069 C256.129438,61.9508313 255.862742,62.8040648 255.240056,63.3732783 C254.79358,63.7817037 254.213755,64 253.622025,64 L253.622025,64 Z" id="Fill-22"></path>
                    <path d="M6.87802447,74.7819131 L10.4283889,77.4381487 L10.9449732,73.0218965 L6.87802447,74.7819131 Z M12.2514243,84 C11.7636672,84 11.2793693,83.8436827 10.8757878,83.5414694 L0.926926533,76.0972939 C0.267359003,75.6040261 -0.0808742034,74.7946501 0.015985364,73.973695 C0.111691841,73.1527398 0.636347831,72.4452595 1.39162184,72.1187301 L12.7864581,67.1883678 C13.5382728,66.8618384 14.4134682,66.964892 15.0730357,67.4581598 C15.7337563,67.9525856 16.0808365,68.7619616 15.9839769,69.5829167 L14.539155,81.9562965 C14.4434485,82.7772516 13.9176395,83.484732 13.1623654,83.8112614 C12.8694806,83.9374731 12.5604524,84 12.2514243,84 L12.2514243,84 Z" id="Fill-23"></path>
                    <path d="M441.878024,216.781913 L445.428389,219.438149 L445.944973,215.021897 L441.878024,216.781913 Z M447.251424,226 C446.763667,226 446.279369,225.843683 445.875788,225.541469 L435.926927,218.097294 C435.267359,217.604026 434.919126,216.79465 435.015985,215.973695 C435.111692,215.15274 435.636348,214.445259 436.391622,214.11873 L447.786458,209.188368 C448.538273,208.861838 449.413468,208.964892 450.073036,209.45816 C450.733756,209.952586 451.080836,210.761962 450.983977,211.582917 L449.539155,223.956297 C449.443449,224.777252 448.917639,225.484732 448.162365,225.811261 C447.869481,225.937473 447.560452,226 447.251424,226 L447.251424,226 Z" id="Fill-23-Copy"></path>
                    <path d="M176.734866,26 C175.812127,26 174.944933,25.3882189 174.608258,24.4010821 L170.138525,11.2709441 C169.708896,10.0071653 170.311964,8.60933082 171.48636,8.14744829 C172.658488,7.68922183 173.96098,8.33390746 174.391742,9.5976863 L178.861475,22.7278243 C179.291104,23.9916032 178.688036,25.3894376 177.51364,25.8513201 C177.256316,25.9512525 176.994458,26 176.734866,26" id="Fill-24"></path>
                    <path d="M440.734866,80 C439.812127,80 438.944933,79.3882189 438.608258,78.4010821 L434.138525,65.2709441 C433.708896,64.0071653 434.311964,62.6093308 435.48636,62.1474483 C436.658488,61.6892218 437.96098,62.3339075 438.391742,63.5976863 L442.861475,76.7278243 C443.291104,77.9916032 442.688036,79.3894376 441.51364,79.8513201 C441.256316,79.9512525 440.994458,80 440.734866,80" id="Fill-24-Copy"></path>
                    <path d="M168.435114,21 C167.44313,21 166.51086,20.4308813 166.14892,19.5125821 C165.687051,18.3391998 166.335374,17.0377092 167.597899,16.6080359 L180.72889,12.1367125 C181.988977,11.711574 183.38921,12.3101691 183.85108,13.4858187 C184.312949,14.659201 183.664626,15.9606916 182.402101,16.390365 L169.272329,20.8616883 C168.995695,20.9546519 168.714186,21 168.435114,21" id="Fill-25"></path>
                    <path d="M432.435114,75 C431.44313,75 430.51086,74.4308813 430.14892,73.5125821 C429.687051,72.3391998 430.335374,71.0377092 431.597899,70.6080359 L444.72889,66.1367125 C445.988977,65.711574 447.38921,66.3101691 447.85108,67.4858187 C448.312949,68.659201 447.664626,69.9606916 446.402101,70.390365 L433.272329,74.8616883 C432.995695,74.9546519 432.714186,75 432.435114,75" id="Fill-25-Copy"></path>
                    <path d="M22.7070585,175 C22.047811,175 21.3931575,174.712313 20.9406427,174.15565 L12.52892,163.826986 C11.719217,162.834115 11.8547418,161.361766 12.8286824,160.538466 C13.8037715,159.713998 15.2520487,159.851994 16.0594546,160.844865 L24.4711773,171.173529 C25.2808802,172.1664 25.1453555,173.638749 24.1702664,174.462049 C23.7418704,174.824581 23.2227416,175 22.7070585,175" id="Fill-26"></path>
                    <path d="M13.3371967,174 C12.6658978,174 11.999277,173.717473 11.5384899,173.170794 C10.7139851,172.195731 10.8519873,170.749789 11.8449016,169.941256 L22.1728471,161.528608 C23.1645919,160.720075 24.6381749,160.853299 25.4615101,161.83066 C26.2860149,162.805723 26.1480127,164.251665 25.1550984,165.060198 L14.8271529,173.471697 C14.3909255,173.827727 13.8623069,174 13.3371967,174" id="Fill-27"></path>
                    <path d="M122.906551,237.980358 C121.446507,237.980358 120.203302,238.960492 119.952734,240.312092 L119.647554,242.02024 L117.92088,242.603546 C115.413589,243.398693 113.751164,245.557374 113.751164,247.984585 C113.751164,251.099531 116.478505,253.632662 119.832268,253.632662 L148.275003,253.632662 C151.204727,253.632662 153.58834,251.420275 153.58834,248.699173 C153.58834,246.024317 151.154935,243.764191 148.275003,243.764191 L145.049737,243.764191 L145.210358,240.770084 L145.208752,240.629852 C145.208752,236.066337 141.273542,232.411348 136.437249,232.411348 C133.060999,232.411348 129.946561,234.185137 128.500974,236.930108 L127.082692,239.560208 L124.263797,238.251871 C123.841364,238.077327 123.375564,237.980358 122.906551,237.980358 M148.352101,258.04401 L119.832268,258.04401 C113.85878,258.04401 109,253.531217 109,247.984585 C109,243.979015 111.566721,240.388175 115.474625,238.806833 C116.476899,235.767971 119.469265,233.640618 122.906551,233.640618 C123.651831,233.640618 124.339288,233.761456 124.936798,233.922574 C127.395903,230.237748 131.681266,228 136.437249,228 C140.073704,228 143.486897,229.323255 146.04398,231.728089 C148.295884,233.842015 149.622612,236.558642 149.847481,239.466223 C154.65165,240.170368 158.337898,244.041672 158.337898,248.699173 C158.337898,253.851961 153.858183,258.04401 148.352101,258.04401" id="Fill-3-Copy"></path>
                    <path d="M311.81131,9.96573812 C310.361266,9.96573812 309.126575,10.9444362 308.877722,12.2940563 L308.574633,13.9997021 L306.859784,14.582154 C304.369665,15.3761359 302.718625,17.531655 302.718625,19.9553106 C302.718625,23.0656934 305.427288,25.595114 308.758082,25.595114 L337.006023,25.595114 C339.915682,25.595114 342.28297,23.3859675 342.28297,20.6688515 C342.28297,17.9979145 339.86623,15.7410994 337.006023,15.7410994 L333.802845,15.7410994 L333.962366,12.7513779 L333.960771,12.6113511 C333.960771,8.05452108 330.052512,4.40488604 325.249341,4.40488604 C321.896214,4.40488604 318.803106,6.17607627 317.367419,8.91702666 L315.95885,11.5432742 L313.15926,10.2368539 C312.739721,10.0625652 312.27711,9.96573812 311.81131,9.96573812 M337.082593,30 L308.758082,30 C302.825504,30 298,25.493818 298,19.9553106 C298,15.9556085 300.549142,12.3700283 304.430283,10.7910025 C305.425693,7.75659169 308.397565,5.63235513 311.81131,5.63235513 C312.551486,5.63235513 313.234235,5.75301654 313.827652,5.91389841 C316.269916,2.23447043 320.52593,0 325.249341,0 C328.860891,0 332.250708,1.32131685 334.790279,3.72262774 C337.02676,5.83345747 338.344402,8.54610457 338.567731,11.4494265 C343.338998,12.1525398 347,16.0181737 347,20.6688515 C347,25.8140921 342.550965,30 337.082593,30" id="Fill-3"></path>
                </g>
                <g id="File" transform="translate(87.000000, 94.000000)">
                    <path d="M52.7579085,1.04536091 L4.91354574,7.67537867 C1.78755495,8.10757938 -0.382940554,11.230009 0.0565276158,14.3102967 L11.1943612,92.4151399 C11.6338294,95.4973876 14.5182121,97.3712374 17.6442029,96.9380567 L77.0738215,88.702722 C80.198818,88.2705213 82.3832333,85.6939778 81.9437652,82.6136902 L72.4335546,15.9263941 C72.222769,14.4465232 71.440277,13.107779 70.2282596,12.2090759 L57.0034494,2.25963911 C55.7934205,1.36093604 54.2582647,0.837590957 52.7579085,1.04536091 M53.553326,6.62378827 L66.7731648,16.7094516 L76.245593,83.1291949 L16.8169687,91.3635495 L5.67714654,13.2577262 L53.7869799,6.59144672" id="Fill-1"></path>
                    <path d="M69.7829732,17.8820462 L54.3815976,19.9863167 C53.6093153,20.0924867 52.8940933,19.5692885 52.7848916,18.8174901 L51.0140532,6.56585338 C50.9048515,5.81405493 51.4439734,5.11868918 52.2172395,5.01347566 C52.9905056,4.90826213 53.7047438,5.43050381 53.8139455,6.18325875 L55.3880242,17.0728585 L69.3894535,15.1589289 C70.1627197,15.0537153 70.8769579,15.5769135 70.9861596,16.3296684 C71.0943775,17.0814669 70.5562393,17.7768327 69.7829732,17.8820462" id="Fill-3"></path>
                    <path d="M32.7703515,31.9343468 L18.6271799,33.9855713 C17.8460308,34.0983887 17.1235176,33.5373788 17.0141964,32.7312475 C16.9038815,31.9240907 17.4484994,31.1805218 18.2296485,31.0666788 L32.3728201,29.0144287 C33.1539692,28.9016113 33.8764824,29.4626212 33.9858036,30.2687525 C34.0961185,31.0759093 33.5515006,31.8205038 32.7703515,31.9343468" id="Fill-5"></path>
                    <path d="M54.7599775,28.7117205 L37.6411945,30.9864409 C36.8533175,31.0916468 36.1255838,30.5732001 36.0143187,29.8282291 C35.9030536,29.0823104 36.4523623,28.3942074 37.2402393,28.2899494 L54.3590222,26.0133334 C55.1468992,25.9090754 55.874633,26.4275221 55.985898,27.1734408 C56.0961607,27.9184118 55.5478545,28.6074625 54.7599775,28.7117205" id="Fill-7"></path>
                    <path d="M24.7001142,40.1129365 L18.720124,40.9846897 C17.8943559,41.1044061 17.1305728,40.509089 17.0150073,39.6525725 C16.8983912,38.7971443 17.4741176,38.0059276 18.2998858,37.8862112 L24.279876,37.0155464 C25.1056441,36.8947416 25.8694272,37.491147 25.9849927,38.3465752 C26.1016088,39.2020034 25.5258824,39.9932201 24.7001142,40.1129365" id="Fill-9"></path>
                    <path d="M40.7471606,37.6767889 L30.6581579,38.9866162 C29.8621374,39.0904668 29.1258691,38.5786986 29.0144667,37.8423885 C28.9020516,37.1070141 29.4570379,36.4268395 30.2530584,36.3239245 L40.3420611,35.0131616 C41.1380816,34.9102466 41.8733372,35.4220149 41.9857523,36.1583249 C42.0971546,36.8936994 41.5431811,37.5738739 40.7471606,37.6767889" id="Fill-11"></path>
                    <path d="M31.7852379,46.5564773 L20.6074808,47.9874259 C19.8357885,48.0857422 19.123004,47.5968422 19.0140246,46.8943278 C18.9050451,46.1909196 19.4430698,45.5420322 20.2147621,45.4428221 L31.3925192,44.0127673 C32.1642115,43.9135573 32.8779778,44.4033511 32.9859754,45.1058655 C33.0949549,45.8083799 32.5569302,46.4581611 31.7852379,46.5564773" id="Fill-13"></path>
                    <path d="M56.75199,43.0243123 L36.6517661,45.9851296 C35.858814,46.1014059 35.1253839,45.5231956 35.0144109,44.6912916 C34.9024292,43.8604446 35.4552761,43.091964 36.2482281,42.9756877 L56.3484521,40.0148704 C57.1414041,39.8985941 57.8738254,40.4768044 57.9858072,41.3087084 C58.0967801,42.1395554 57.544942,42.908036 56.75199,43.0243123" id="Fill-15"></path>
                    <path d="M55.8077115,35.8077103 L47.5778092,36.9857425 C46.8202611,37.0956921 46.1205411,36.5577241 46.0135591,35.7861131 C45.9075409,35.0135203 46.4347404,34.3008109 47.1922885,34.1918429 L55.4221908,33.0138108 C56.1797389,32.9058245 56.8804227,33.4428109 56.9864409,34.2144219 C57.0924591,34.9870146 56.5652596,35.6997241 55.8077115,35.8077103" id="Fill-17"></path>
                    <path d="M51.7471606,71.6767891 L41.6581579,72.9866162 C40.8621374,73.0904668 40.1258691,72.5786986 40.0144667,71.8423887 C39.9020516,71.1070144 40.4570379,70.4268399 41.2530584,70.3239249 L51.3420611,69.0131622 C52.1380816,68.9102472 52.8733372,69.4220154 52.9857523,70.1573897 C53.0971546,70.8936997 52.5431811,71.5729386 51.7471606,71.6767891" id="Fill-19"></path>
                    <path d="M59.7469416,63.6765461 L49.6579389,64.9866131 C48.8619184,65.0904827 48.1256501,64.5786208 48.0142477,63.8431118 C47.9028454,63.106667 48.4568189,62.4273036 49.2528394,62.3243698 L59.3418421,61.013367 C60.1378626,60.9094974 60.8741309,61.422295 60.9855333,62.1578041 C61.0979484,62.8933132 60.5429621,63.5736123 59.7469416,63.6765461" id="Fill-21"></path>
                    <path d="M44.7742369,65.9218742 L23.6223219,68.9856326 C22.8435049,69.0979705 22.1231488,68.5393452 22.0141541,67.7366404 C21.9041685,66.9329145 22.4471604,66.1925062 23.2259774,66.0791471 L44.3778924,63.0143674 C45.1567093,62.9020295 45.8760746,63.4606548 45.9860602,64.2633596 C46.0950549,65.0670855 45.5530538,65.8085151 44.7742369,65.9218742" id="Fill-23"></path>
                    <path d="M34.7471606,74.6767889 L24.6581579,75.9866162 C23.8621374,76.0904668 23.1258691,75.5786986 23.0144667,74.8423885 C22.9020516,74.1070141 23.4570379,73.4268395 24.2530584,73.3239245 L34.3420611,72.0131616 C35.1380816,71.9102466 35.8733372,72.4220149 35.9857523,73.1583249 C36.0971546,73.8936994 35.5431811,74.5738739 34.7471606,74.6767889" id="Fill-25"></path>
                    <path d="M29.8077341,53.8077103 L21.5779877,54.9857425 C20.820454,55.0956921 20.1197834,54.5577241 20.0137673,53.7861131 C19.9067873,53.0135203 20.4349406,52.3008109 21.1924743,52.1918429 L29.4222207,51.0138108 C30.1797544,50.9058245 30.8794612,51.4428109 30.9864411,52.2144219 C31.0924573,52.9870146 30.5652678,53.6997241 29.8077341,53.8077103" id="Fill-27"></path>
                    <path d="M57.7938142,49.8245852 L35.5961319,52.9858723 C34.8298878,53.0954952 34.1211607,52.5552815 34.0139256,51.7780453 C33.9057155,51.0008092 34.4399417,50.2838162 35.2061858,50.1741933 L57.4038681,47.0138938 C58.1701122,46.9052585 58.8788393,47.4454722 58.9860744,48.2217208 C59.0942845,48.998957 58.5600583,49.7159499 57.7938142,49.8245852" id="Fill-29"></path>
                    <path d="M40.7844422,59.6123055 L22.6093037,61.9871554 C21.8361235,62.0875912 21.1228722,61.5881514 21.0138213,60.869579 C20.9057529,60.1519196 21.4431476,59.4881303 22.2153453,59.3876945 L40.3914663,57.0128446 C41.163664,56.9124088 41.8778979,57.4118486 41.9859662,58.130421 C42.0950171,58.8480804 41.55664,59.5118697 40.7844422,59.6123055" id="Fill-31"></path>
                    <path d="M59.7379361,57.0598764 L46.6711449,58.9849541 C45.8692634,59.1025977 45.1275741,58.517588 45.0143313,57.6769707 C44.9021087,56.835284 45.4611813,56.058836 46.2630627,55.9411924 L59.329854,54.0150453 C60.1317354,53.8974016 60.8724046,54.4824113 60.9856474,55.3240981 C61.09787,56.1647153 60.5398176,56.9422328 59.7379361,57.0598764" id="Fill-33"></path>
                    <path d="M139.779615,0 L91.7654893,0 C88.6293003,0 86,2.78971917 86,5.89549561 L86,84.6446394 C86,87.7513944 88.6293003,90 91.7654893,90 L151.406438,90 C154.542627,90 157,87.7513944 157,84.6446394 L157,17.4076128 C157,15.9163704 156.443707,14.4857954 155.379537,13.4309664 L143.773464,1.78185851 C142.708305,0.728008089 141.28546,0 139.779615,0 M139.779615,5.62444959 L151.320474,17.4076128 L151.320474,84.3745719 L91.6795257,84.3745719 L91.6795257,5.62444959 L139.960435,5.62444959" id="Fill-35"></path>
                    <path d="M150.600097,20 L139.399903,20 C138.625426,20 138,19.3482194 138,18.5456386 L138,5.45436144 C138,4.65076855 138.625426,4 139.399903,4 C140.173405,4 140.799805,4.65076855 140.799805,5.45436144 L140.799805,17.090265 L150.600097,17.090265 C151.3736,17.090265 152,17.7420457 152,18.5456386 C152,19.3482194 151.3736,20 150.600097,20" id="Fill-38"></path>
                    <path d="M141.5668,72 L101.434198,72 C100.6413,72 100,71.3627623 100,70.5758777 L100,26.4251133 C100,25.6372377 100.6413,25 101.434198,25 C102.226098,25 102.867398,25.6372377 102.867398,26.4251133 L102.867398,69.1517554 L141.5668,69.1517554 C142.3587,69.1517554 143,69.7899842 143,70.5758777 C143,71.3627623 142.3587,72 141.5668,72" id="Fill-40"></path>
                    <path d="M120.976142,64 C120.453469,64 119.967632,63.7152455 119.715753,63.2515307 L111.159837,47.4703977 L107.761962,55.9972125 C107.471256,56.7278846 106.63697,57.082839 105.904231,56.7951183 C105.169502,56.5064089 104.810102,55.6808186 105.100808,54.9511353 L109.630644,43.5836967 C109.834736,43.0705454 110.320573,42.7205347 110.877096,42.6879066 C111.421672,42.6691207 111.955296,42.946954 112.221113,43.4334096 L120.580902,58.8516785 L124.609967,45.129083 C124.758307,44.6268078 125.172464,44.2461464 125.687172,44.137386 C126.207855,44.0296143 126.737497,44.2115408 127.077982,44.6119768 L129.696327,47.6978058 L133.221635,37.9429872 C133.488447,37.2024278 134.308795,36.8178115 135.052485,37.0847688 C135.795179,37.3507374 136.182455,38.1644629 135.915643,38.9030449 L131.551071,50.9813809 C131.376846,51.4589379 130.960699,51.8099374 130.455945,51.8999119 C129.959157,51.9908751 129.43947,51.8049937 129.108941,51.4164225 L126.610064,48.4709933 L122.350027,62.9776523 C122.187749,63.5303528 121.703903,63.9317776 121.125478,63.9911014 C121.075699,63.9970338 121.024925,64 120.976142,64" id="Fill-42"></path>
                    <path d="M225.853687,5.7566782 L178.001044,0.0374083301 C174.875605,-0.336335875 171.970365,2.14021125 171.593448,5.24032108 L162.040575,83.8249578 C161.663657,86.9250676 163.956902,89.4753801 167.083333,89.8491243 L226.523212,96.9541983 C229.648651,97.3279425 232.424945,95.3825056 232.801862,92.2833793 L240.958157,25.1854756 C241.138681,23.6973836 240.732007,22.2004397 239.797648,21.0211784 L229.631788,8.01291295 C228.69743,6.83365163 227.354414,5.93666554 225.853687,5.7566782 M225.171268,11.369726 L235.297453,24.5088019 L227.17389,91.3362328 L167.734012,84.2321423 L177.286885,5.64652201 L225.404362,11.3972651" id="Fill-44"></path>
                    <path d="M238.439842,26.9898901 L223.225729,25.1622506 C222.462842,25.0714962 221.918062,24.3811833 222.010151,23.6194255 L223.510721,11.2217927 C223.601841,10.4600349 224.295903,9.91840478 225.059759,10.0101247 C225.823615,10.1018446 226.368396,10.7931229 226.276307,11.5539152 L224.942467,22.5747842 L238.773302,24.2344315 C239.537158,24.3261514 240.081939,25.0164642 239.989849,25.7782221 C239.89776,26.5390144 239.203698,27.08161 238.439842,26.9898901" id="Fill-46"></path>
                    <path d="M216.503522,62.8542354 L183.259899,58.6187988 L194.447571,37.9235793 L203.730789,52.9316298 L209.811154,49.5588592 L216.503522,62.8542354 Z M210.889352,41.400532 C210.591781,43.6526158 212.210567,45.715809 214.50583,46.0088817 C216.801093,46.3009808 218.901943,44.7119618 219.200506,42.4598779 C219.498077,40.2058467 217.879291,38.1426536 215.58502,37.8505545 C213.289757,37.5584554 211.187915,39.1474744 210.889352,41.400532 L210.889352,41.400532 Z M218.914838,65.9261441 L180.130445,60.9848013 L184.086154,31.0719086 L222.869555,36.014225 L218.914838,65.9261441 Z M181.674838,28 L177,63.3517775 L221.325162,69 L226,33.6472488 L181.674838,28 Z" id="Fill-48"></path>
                    <g id="Page-1" transform="translate(242.000000, 14.000000)">
                        <path d="M57.5176114,4.60115341 L13.3260686,0.0583920455 C10.4388686,-0.237357955 7.80366857,2.12450568 7.50846857,5.02719886 L0.02664,78.6100057 C-0.26856,81.5126989 1.88835429,83.856983 4.77555429,84.153767 L59.6683543,89.794733 C62.5545257,90.091517 65.0806971,88.2280852 65.3748686,85.325392 L71.7633257,22.500233 C71.90424,21.1073125 71.5041257,19.714392 70.6236686,18.6275625 L61.0363543,6.64555114 C60.1569257,5.55975568 58.9041257,4.74385795 57.5176114,4.60115341 M56.9827543,9.85640341 L66.5350971,21.9625057 L60.1733829,84.5363807 L5.28058286,78.8954148 L12.7624114,5.31157386 L57.1987543,9.87915341" id="Fill-1"></path>
                        <path d="M68.9322857,24.3620102 L54.5559429,22.8842943 C53.8338857,22.8098398 53.3082857,22.1624989 53.3823429,21.435533 L54.5847429,9.60966932 C54.6588,8.8837375 55.3037143,8.35635114 56.0257714,8.43080568 C56.7468,8.50422614 57.2724,9.15260114 57.1983429,9.87853295 L56.1296571,20.390067 L69.1997143,21.7333511 C69.9207429,21.8078057 70.4473714,22.4551466 70.3733143,23.1821125 C70.2992571,23.9090784 69.6543429,24.4354307 68.9322857,24.3620102" id="Fill-4"></path>
                        <path d="M30.1418743,38.3717705 C30.1418743,38.0005318 29.9968457,37.6520432 29.7355886,37.3904182 C29.4743314,37.1277591 29.1277029,36.9829864 28.7584457,36.9829864 L28.7574171,36.9829864 C28.38816,36.9829864 28.0415314,37.1287932 27.7802743,37.3914523 L22.0069029,43.200975 C21.5512457,43.6570091 21.46896,44.3622591 21.8063314,44.9123955 L26.2662171,52.2130773 C26.4904457,52.5812136 26.8792457,52.8273273 27.3050743,52.869725 C27.3544457,52.8738614 27.40176,52.8769636 27.4501029,52.8769636 C27.70416,52.8769636 27.9499886,52.8066455 28.1690743,52.6701455 C28.8181029,52.2699523 29.0227886,51.4116568 28.6237029,50.7581114 L24.7336457,44.3912136 L29.7366171,39.356225 C29.9978743,39.0925318 30.1418743,38.7430091 30.1418743,38.3717705" id="Fill-6"></path>
                        <path d="M50.0096571,44.9469341 L45.5487429,37.6452182 C45.3564,37.3308545 45.0519429,37.108525 44.694,37.0216614 C44.3350286,36.9347977 43.9626857,36.994775 43.6469143,37.1891841 C43.3311429,37.3835932 43.11,37.68865 43.0246286,38.0505818 C42.9392571,38.4125136 42.9989143,38.7858205 43.1922857,39.1022523 L47.0813143,45.4681159 L42.0793714,50.5041386 C41.8181143,50.7667977 41.6741143,51.1152864 41.6741143,51.486525 C41.6741143,51.8587977 41.8181143,52.2072864 42.0793714,52.4689114 C42.3025714,52.6953773 42.5998286,52.8370477 42.9156,52.8691045 C42.9639429,52.874275 43.0122857,52.8773773 43.0596,52.8773773 C43.4247429,52.8773773 43.7734286,52.7326045 44.0346857,52.4689114 L49.8090857,46.6573205 C50.2647429,46.2002523 50.346,45.4960364 50.0096571,44.9469341" id="Fill-8"></path>
                        <path d="M39.5310857,53.5528455 L34.4211429,35.5441523 C34.2113143,34.8099477 33.444,34.3797659 32.7116571,34.5886523 C31.9793143,34.7975386 31.5514286,35.5679364 31.7592,36.3062773 L36.8701714,54.3149705 C37.0265143,54.8661409 37.4934857,55.2580614 38.0602286,55.3170045 C38.1075429,55.322175 38.1548571,55.3252773 38.2011429,55.3252773 C38.3286857,55.3252773 38.4552,55.3066636 38.5796571,55.2704705 C39.3130286,55.0615841 39.7398857,54.2901523 39.5310857,53.5528455" id="Fill-10"></path>
                    </g>
                </g>
            </g>
        </g>
    </g>
</svg>