<?xml version="1.0" encoding="UTF-8" standalone="no"?>
<!-- Generator: Adobe Illustrator 14.0.0, SVG Export Plug-In . SVG Version: 6.00 Build 43363)  -->

<svg
   version="1.1"
   id="Livello_1"
   x="0px"
   y="0px"
   width="630"
   height="323"
   viewBox="110.049 7.746 630.00001 323.00001"
   enable-background="new 110.049 7.746 650.967 464.977"
   xml:space="preserve"
   sodipodi:docname="logo-eureka3d.svg"
   inkscape:version="1.3.2 (1:1.3.2+202311252150+091e20ef0f)"
   xmlns:inkscape="http://www.inkscape.org/namespaces/inkscape"
   xmlns:sodipodi="http://sodipodi.sourceforge.net/DTD/sodipodi-0.dtd"
   xmlns="http://www.w3.org/2000/svg"
   xmlns:svg="http://www.w3.org/2000/svg"><defs
   id="defs10" /><sodipodi:namedview
   id="namedview10"
   pagecolor="#ffffff"
   bordercolor="#666666"
   borderopacity="1.0"
   inkscape:showpageshadow="2"
   inkscape:pageopacity="0.0"
   inkscape:pagecheckerboard="0"
   inkscape:deskcolor="#d1d1d1"
   inkscape:zoom="2.4388304"
   inkscape:cx="314.08498"
   inkscape:cy="224.28784"
   inkscape:window-width="2560"
   inkscape:window-height="1376"
   inkscape:window-x="0"
   inkscape:window-y="27"
   inkscape:window-maximized="1"
   inkscape:current-layer="Livello_1" />
<g
   id="g9"
   transform="translate(-11.2975,-8.177)">
	<g
   id="g2">
		<path
   fill="#95c11f"
   d="m 588.557,269.068 c -6.934,-7.502 -10.402,-18.267 -10.402,-32.295 v -14.278 h 26.046 v 15.526 c 0,11.493 4.763,17.258 14.272,17.258 4.679,0 8.23,-1.453 10.647,-4.395 2.417,-2.907 3.631,-8.063 3.631,-15.402 v -14.273 c 0,-8.025 -1.415,-13.711 -4.237,-17.136 -2.817,-3.432 -7.418,-5.123 -13.749,-5.123 h -9.272 v -25.038 h 10.002 c 5.524,0 9.634,-1.414 12.379,-4.238 2.74,-2.817 4.11,-7.578 4.11,-14.272 v -12.78 c 0,-6.01 -1.247,-10.441 -3.748,-13.266 -2.5,-2.822 -5.848,-4.231 -10.002,-4.231 -8.832,0 -13.265,5.401 -13.265,16.25 v 11.487 h -26.047 v -9.271 c 0,-14.034 3.471,-24.759 10.402,-32.3 6.935,-7.496 16.891,-11.249 29.917,-11.249 13.188,0 23.183,3.709 30.038,11.132 6.855,7.417 10.241,18.143 10.241,32.171 v 6.254 c 0,9.512 -1.57,17.136 -4.756,22.899 -3.187,5.77 -8.104,9.879 -14.758,12.379 v 0.483 c 7.179,2.662 12.341,7.019 15.525,13.026 3.142,6.009 4.756,13.666 4.756,23.021 v 15.525 c 0,14.027 -3.47,24.716 -10.401,32.173 -6.935,7.462 -17.137,11.132 -30.646,11.132 -13.547,0.08 -23.788,-3.668 -30.683,-11.169 z"
   id="path1" />
		<path
   fill="#95c11f"
   d="m 667.954,79.035 h 42.051 c 13.672,0 23.951,3.67 30.769,11.01 6.854,7.334 10.241,18.104 10.241,32.294 v 88.585 c 0,14.194 -3.432,24.959 -10.241,32.299 -6.855,7.341 -17.097,11.011 -30.769,11.011 h -42.051 z m 41.565,150.115 c 4.517,0 7.985,-1.331 10.409,-3.993 2.416,-2.662 3.625,-7.018 3.625,-13.021 v -91.09 c 0,-6.003 -1.209,-10.358 -3.625,-13.021 -2.424,-2.661 -5.894,-3.992 -10.409,-3.992 H 695.492 V 229.15 Z"
   id="path2" />
	</g>
	<polygon
   opacity="0.8"
   fill="#95c11f"
   enable-background="new    "
   points="222.358,133.71 222.358,95.001 261.914,55.483 261.914,94.155 "
   id="polygon2" />
	<polygon
   fill="#95c11f"
   points="222.358,133.71 182.808,94.155 182.808,55.483 222.358,95.001 "
   id="polygon3" />
	<polygon
   opacity="0.6"
   fill="#95c11f"
   enable-background="new    "
   points="222.382,15.923 261.926,55.468 222.382,95.016 182.83,55.468 "
   id="polygon4" />
	<g
   id="g8">
		<path
   fill="#005080"
   d="m 347.274,102.301 h 37.217 l 18.511,21.691 h -31.854 v 40.118 h 32.778 v 21.696 h -32.778 v 46.65 h 41.21 v 21.69 h -65.084 z"
   id="path4" />
		<path
   fill="#005080"
   d="m 412.397,102.301 h 23.868 v 63.987 l 30.36,-63.987 H 490.5 l -28.429,55.762 28.869,96.124 h -24.961 l -20.158,-67.694 -9.557,19.313 v 48.384 h -23.868 z"
   id="path5" />
		<path
   fill="#005080"
   d="m 513.962,102.301 h 32.34 l 24.72,151.886 -28.229,-29.715 v -0.439 0.439 H 515.66 l -4.354,29.715 h -22.138 z m 26.051,101.566 -10.647,-75.074 h -0.438 l -10.403,75.074 z"
   id="path6" />
		<polygon
   fill="#005080"
   points="145.547,185.845 178.33,185.845 178.33,164.156 145.547,164.156 145.547,124.031 180.709,124.031 159.018,102.301 121.678,102.301 121.678,254.186 190.103,254.186 190.103,232.497 145.547,232.497 "
   id="polygon6" />
		<path
   fill="#005080"
   d="m 234.938,153.106 v 88.546 c 0,5.2 -1.047,8.948 -3.141,11.288 -2.101,2.339 -5.124,3.47 -8.994,3.47 -3.87,0 -6.895,-1.17 -8.994,-3.47 -2.094,-2.301 -3.141,-6.088 -3.141,-11.288 v -87.66 l -23.874,-23.868 v 109.791 c 0,12.302 3.023,21.735 9.115,28.307 6.087,6.571 14.875,9.879 26.447,9.879 11.572,0 20.404,-3.308 26.452,-9.879 6.092,-6.57 9.116,-16.005 9.116,-28.307 V 130.079 Z"
   id="path7" />
		<path
   fill="#005080"
   d="m 329.332,246.285 c -0.278,-2.662 -0.44,-6.164 -0.44,-10.521 v -26.696 c 0,-8.949 -1.208,-16.127 -3.592,-21.49 -2.378,-5.363 -6.488,-8.91 -12.257,-10.644 v -0.444 c 10.402,-4.193 15.604,-14.195 15.604,-29.96 v -9.313 c 0,-11.855 -2.823,-20.644 -8.464,-26.369 -5.647,-5.725 -14.596,-8.593 -26.898,-8.593 h -7.617 l -27.783,27.783 V 230.24 l 23.874,23.867 V 189.03 h 8.225 c 5.48,0 9.351,1.37 11.611,4.109 2.255,2.745 3.347,7.585 3.347,14.559 v 27.783 c 0,5.646 0.162,9.556 0.445,11.732 0.278,2.177 0.886,4.479 1.731,6.934 h 24.314 c -1.092,-2.538 -1.817,-5.2 -2.1,-7.862 z m -24.515,-94.916 c 0,5.809 -1.208,9.918 -3.586,12.38 -2.378,2.462 -5.97,3.67 -10.726,3.67 h -8.671 v -43.387 h 10.848 c 4.193,0 7.256,1.253 9.233,3.709 1.933,2.461 2.939,6.453 2.939,11.938 v 11.689 h -0.037 z"
   id="path8" />
	</g>
</g>

</svg>
