<?xml version="1.0" encoding="UTF-8" standalone="no"?>
<!-- Created with Inkscape (http://www.inkscape.org/) -->

<svg
   width="146mm"
   height="33mm"
   viewBox="0 0 146 33"
   version="1.1"
   id="svg1"
   inkscape:version="1.3.2 (1:1.3.2+202311252150+091e20ef0f)"
   sodipodi:docname="logo-europeana.svg"
   xmlns:inkscape="http://www.inkscape.org/namespaces/inkscape"
   xmlns:sodipodi="http://sodipodi.sourceforge.net/DTD/sodipodi-0.dtd"
   xmlns="http://www.w3.org/2000/svg"
   xmlns:svg="http://www.w3.org/2000/svg">
  <sodipodi:namedview
     id="namedview1"
     pagecolor="#ffffff"
     bordercolor="#666666"
     borderopacity="1.0"
     inkscape:showpageshadow="2"
     inkscape:pageopacity="0.0"
     inkscape:pagecheckerboard="0"
     inkscape:deskcolor="#d1d1d1"
     inkscape:document-units="mm"
     inkscape:zoom="1.4286771"
     inkscape:cx="277.17949"
     inkscape:cy="151.88876"
     inkscape:window-width="2560"
     inkscape:window-height="1376"
     inkscape:window-x="0"
     inkscape:window-y="27"
     inkscape:window-maximized="1"
     inkscape:current-layer="layer1" />
  <defs
     id="defs1" />
  <g
     inkscape:label="Warstwa 1"
     inkscape:groupmode="layer"
     id="layer1"
     transform="translate(-32.279166,-49.741667)">
    <g
       id="g10"
       transform="matrix(0.26458333,0,0,0.26458333,-10.17058,-43.655967)">
      <path
         fill="#1a1a1a"
         d="m 237.179,385.589 h 0.112 -0.112 m -52.835,34.58 c 8.321,0 15.066,6.715 15.066,14.996 0,8.281 -6.745,14.996 -15.066,14.996 -8.317,0 -15.063,-6.715 -15.063,-14.996 0,-8.281 6.745,-14.996 15.063,-14.996 m 10.908,33.57 c 0.018,-4.27 3.485,-7.722 7.754,-7.722 4.271,0 7.739,3.456 7.757,7.724 -0.018,4.269 -3.485,7.725 -7.757,7.725 -4.269,0 -7.736,-3.456 -7.754,-7.725 m 59.465,-61.214 c -0.131,-1.002 -0.207,-2.011 -0.226,-3.022 -0.223,-0.779 -0.335,-2.012 -0.447,-2.682 -0.338,-0.895 -0.338,-1.234 -0.451,-1.907 -0.223,-0.67 -0.223,-0.67 -0.561,-2.126 -0.786,-2.794 -2.026,-5.595 -3.373,-8.281 -0.898,-1.677 -2.022,-3.133 -3.15,-4.582 -0.347,-0.476 -0.722,-0.921 -1.124,-1.347 -0.448,-0.562 -2.919,-3.468 -3.705,-4.142 -0.789,-0.671 -1.466,-1.341 -2.361,-2.015 -0.786,-0.67 -1.685,-1.34 -2.474,-1.903 -0.677,-0.558 -1.463,-0.779 -2.137,-1.228 -3.82,-2.352 -8.095,-4.255 -12.479,-5.263 -14.723,-3.354 -32.037,1.566 -41.596,13.543 -1.012,1.232 -2.02,2.463 -3.031,3.803 -0.454,0.564 -0.677,1.344 -1.125,2.015 -0.858,1.397 -1.611,2.854 -2.248,4.365 -2.699,5.93 -4.388,13.205 -3.824,20.03 0.339,3.809 1.013,7.611 2.362,11.188 0.447,1.128 0.785,2.243 1.35,3.365 0.338,0.779 1.236,2.346 1.347,2.571 -8.13,3.564 -13.379,11.603 -13.379,20.478 0,12.313 10.118,22.383 22.485,22.383 2.608,0.021 5.201,-0.438 7.645,-1.345 0,0.11 0.113,0.11 0.113,0.226 1.236,4.814 5.618,8.504 10.904,8.504 6.185,0 11.24,-5.036 11.24,-11.191 0.024,-5.265 -3.626,-9.829 -8.766,-10.969 0,-0.108 0.112,-0.219 0.112,-0.331 0.112,-0.448 0.335,-0.896 0.447,-1.345 0.226,-0.562 0.339,-1.121 0.451,-1.792 0,-0.334 0.113,-0.67 0.113,-1.117 0.112,-0.448 0.112,-0.893 0.112,-1.341 0.109,-0.112 0.223,0 0.448,0 2.474,0.106 4.944,0.558 7.419,0.332 4.606,-0.226 9.558,-1.121 13.717,-3.019 4.382,-1.904 8.653,-4.367 12.251,-7.615 1.686,-1.449 3.373,-3.131 4.723,-5.033 0.674,-0.895 1.46,-1.679 2.023,-2.575 0.448,-0.779 1.121,-1.565 1.575,-2.349 0.335,-0.561 0.335,-0.896 0.673,-1.453 0.253,-0.338 0.445,-0.715 0.562,-1.121 0.338,-0.78 0.451,-1.679 0.451,-2.574 0.112,-1.676 -0.451,-3.468 -1.46,-4.924 -0.793,-1.229 -2.699,-2.347 -4.159,-2.797 -1.685,-0.444 -3.714,-0.335 -5.398,0.225 -1.798,0.671 -3.035,2.236 -4.046,3.918 -1.125,1.786 -2.14,3.468 -3.599,4.925 -2.807,2.797 -5.848,5.032 -9.555,6.49 -14.165,5.709 -30.579,-2.019 -35.302,-16.453 -2.133,-6.716 -1.571,-14.212 1.914,-20.476 1.828,-3.272 4.269,-6.16 7.193,-8.508 1.588,-1.255 3.324,-2.309 5.171,-3.134 1.685,-0.671 3.372,-1.118 5.061,-1.679 1.347,-0.444 3.147,-0.562 4.494,-0.67 1.499,-0.132 3.008,-0.092 4.497,0.111 3.034,0.448 6.185,1.229 8.994,2.575 1.463,0.779 3.147,1.791 4.497,2.906 1.347,1.122 2.807,2.466 3.934,3.809 0.899,1.118 1.353,1.902 2.245,3.018 0.902,1.343 2.14,2.8 2.252,4.479 h -10.569 c -3.37,0 -7.081,-0.781 -10.226,0.782 -3.261,1.679 -5.847,6.381 -3.714,9.851 1.015,1.676 1.463,3.02 3.373,3.916 1.913,0.893 3.485,1.008 5.621,1.008 4.838,-0.115 9.671,0 14.503,0 h 7.532 c 2.136,0 4.274,0.109 6.295,-0.67 3.039,-1.012 4.724,-4.254 4.386,-7.837 m 65.827,22.489 c 0,2.276 -1.029,3.524 -3.29,3.524 h -27.389 v 2.696 c 0,8.712 3.708,13.068 11.328,13.068 4.735,0 9.06,-1.042 12.56,-2.9 0.412,-0.213 1.03,-0.421 1.441,-0.421 1.029,0 1.852,0.415 2.467,1.25 0.619,0.825 1.031,1.651 1.031,2.693 0,1.449 -0.619,2.486 -2.061,3.317 -4.527,2.489 -9.88,3.732 -15.853,3.732 -6.794,0 -11.943,-2.071 -15.237,-6.429 -3.089,-3.734 -4.53,-8.711 -4.53,-15.143 v -9.329 c 0,-6.43 1.441,-11.411 4.53,-15.144 3.501,-4.149 8.443,-6.426 15.237,-6.426 7.002,0 11.944,2.071 15.444,6.426 2.879,3.528 4.32,8.504 4.32,14.937 v 4.149 z m -8.644,-5.182 c 0,-8.508 -3.707,-12.864 -10.914,-12.864 -7.413,0 -11.325,4.356 -11.325,12.864 v 1.657 H 311.9 Z m 60.06,32.143 c -2.021,0.003 -3.967,-0.733 -5.479,-2.071 -1.054,-0.829 -1.685,-2.078 -2.528,-3.735 -3.794,3.943 -9.058,5.807 -16.012,5.807 -11.167,0 -16.854,-6.222 -16.854,-18.458 v -29.453 c 0,-1.24 0.423,-2.276 1.265,-3.107 0.844,-0.833 1.897,-1.247 3.162,-1.247 1.261,0 2.315,0.414 3.159,1.247 0.841,0.825 1.265,1.867 1.265,3.11 v 28.619 c 0,3.525 0.631,6.222 1.896,7.883 1.474,1.866 4.214,2.9 7.794,2.9 5.895,0 10.112,-2.279 12.432,-6.844 v -32.767 c 0,-1.245 0.42,-2.282 1.261,-3.113 0.845,-0.828 1.898,-1.243 3.162,-1.243 1.262,0 2.315,0.415 3.159,1.25 0.845,0.824 1.265,1.861 1.265,3.106 v 34.637 c 0,3.111 1.052,5.394 3.157,6.43 1.268,0.621 1.685,1.657 1.685,2.9 0.634,2.906 -0.841,4.149 -3.79,4.149 z m 37.857,-43.137 c -0.604,0 -1.003,-0.21 -1.603,-0.21 -0.604,0 -1.201,-0.204 -1.805,-0.204 h -1.404 c -6.009,0 -9.615,3.108 -10.815,9.123 v 30.071 c 0,1.25 -0.402,2.286 -1.204,3.114 -0.783,0.819 -1.873,1.271 -3.005,1.243 -1.202,0 -2.202,-0.414 -3.007,-1.243 -0.801,-0.828 -1.204,-1.87 -1.204,-3.114 v -34.008 c 0,-3.114 -0.998,-5.393 -3.003,-6.43 -1.201,-0.624 -1.604,-1.657 -1.604,-2.9 0,-2.492 1.402,-3.941 4.208,-3.941 h 1.405 c 3.204,0.827 5.405,2.898 6.611,6.218 3.202,-4.561 7.611,-7.051 13.424,-7.051 2.603,0 4.806,0.414 6.611,1.247 1.406,0.828 2.002,1.864 2.002,3.527 0,1.243 -0.399,2.276 -1.199,3.108 -0.726,0.782 -1.74,1.233 -2.811,1.246 -0.597,0.207 -0.996,0.207 -1.599,0.207 v -0.003 z m 48.128,36.891 c -3.641,4.162 -8.991,6.246 -16.271,6.246 -7.063,0 -12.416,-2.084 -16.053,-6.246 -3.212,-3.747 -4.924,-8.744 -4.924,-14.783 v -10.414 c 0,-6.245 1.714,-11.032 4.924,-14.783 3.641,-4.162 8.99,-6.246 16.053,-6.246 7.279,0 12.63,2.084 16.268,6.246 3.215,3.751 4.924,8.744 4.924,14.783 v 10.414 c 0,6.246 -1.713,11.036 -4.924,14.783 z m -4.284,-25.197 c 0,-8.534 -4.064,-12.699 -11.986,-12.699 -7.918,0 -11.77,4.165 -11.77,12.699 v 10.414 c 0,8.537 3.852,12.91 11.77,12.91 7.922,0 11.986,-4.373 11.986,-12.91 z m 40.509,29.877 c -4.695,0 -8.748,-1.206 -12.376,-3.819 v 16.9 c 0,1.21 -0.431,2.215 -1.281,3.02 -0.855,0.804 -1.922,1.206 -3.201,1.206 -1.279,0 -2.346,-0.402 -3.199,-1.206 -0.841,-0.774 -1.308,-1.878 -1.281,-3.02 v -51.108 c 0,-3.221 -1.066,-5.23 -2.984,-6.24 -1.279,-0.601 -1.706,-1.605 -1.706,-2.812 0,-2.417 1.489,-3.827 4.478,-3.827 1.92,0 3.84,0.604 5.549,2.012 0.641,0.605 1.279,1.413 1.92,2.218 4.266,-2.819 8.747,-4.229 13.656,-4.229 12.8,0 19.197,6.643 19.197,19.92 v 8.854 c 0,14.894 -6.397,22.132 -18.774,22.132 h 0.002 z m 9.6,-31.386 c 0,-7.852 -3.842,-11.872 -11.523,-11.872 -3.629,0 -7.254,1.407 -10.451,4.021 v 27.166 c 3.197,3.02 6.822,4.431 10.877,4.431 7.469,0 11.098,-4.431 11.098,-13.284 v -10.464 0.002 z m 56.611,5.991 c 0,2.276 -1.03,3.524 -3.291,3.524 h -27.388 v 2.696 c 0,8.712 3.708,13.068 11.325,13.068 4.738,0 9.061,-1.042 12.562,-2.9 0.412,-0.213 1.03,-0.421 1.442,-0.421 1.028,0 1.852,0.415 2.471,1.25 0.618,0.825 1.028,1.651 1.028,2.693 0,1.449 -0.618,2.486 -2.059,3.317 -4.531,2.489 -9.885,3.732 -15.856,3.732 -6.793,0 -11.943,-2.071 -15.237,-6.429 -3.089,-3.734 -4.531,-8.711 -4.531,-15.143 v -9.329 c 0,-6.43 1.442,-11.411 4.531,-15.144 3.501,-4.149 8.444,-6.426 15.237,-6.426 7.002,0 11.943,2.071 15.444,6.426 2.883,3.528 4.321,8.504 4.321,14.937 v 4.149 z m -8.441,-5.182 c 0,-8.508 -3.704,-12.864 -10.913,-12.864 -7.413,0 -11.325,4.356 -11.325,12.864 v 1.657 h 22.238 z m 54.279,32.143 c -2.017,0 -3.832,-0.621 -5.042,-2.071 -0.807,-0.625 -1.414,-1.661 -2.017,-3.113 -3.028,3.527 -7.666,5.185 -13.72,5.185 -5.854,0 -10.292,-1.45 -13.117,-4.149 -2.621,-2.694 -4.034,-6.219 -4.034,-10.578 v -0.827 c 0,-4.353 1.41,-7.882 4.238,-10.575 3.227,-2.699 7.867,-4.149 13.718,-4.149 h 11.301 v -2.492 c 0,-4.354 -0.604,-7.258 -2.018,-9.123 -1.414,-2.071 -4.238,-3.113 -8.272,-3.113 -3.632,0 -7.063,0.828 -10.091,2.492 -0.808,0.415 -1.411,0.621 -2.017,0.621 -1.01,0 -2.018,-0.417 -2.621,-1.248 -0.606,-0.823 -1.012,-1.655 -1.012,-2.694 0,-1.242 0.607,-2.279 1.816,-3.11 3.631,-2.275 8.477,-3.525 14.53,-3.525 6.657,0 11.498,1.657 14.323,5.186 2.621,3.107 3.833,8.301 3.833,15.144 v 18.872 c 0,3.108 1.009,5.39 2.825,6.426 1.209,0.832 1.611,1.661 1.611,2.903 0.003,2.695 -1.405,3.938 -4.234,3.938 z m -8.875,-23.436 h -10.292 c -6.858,0 -10.489,2.696 -10.489,7.882 v 0.833 c 0,5.185 3.43,7.878 10.086,7.878 7.063,0 10.695,-3.524 10.695,-10.578 z m 64.149,22.188 c -0.828,0.828 -1.965,1.278 -3.139,1.248 -2.361,0.068 -4.329,-1.789 -4.398,-4.149 0,-0.072 0,-0.146 0,-0.223 v -28.734 c 0,-3.542 -0.625,-6.246 -1.88,-7.913 -1.47,-2.084 -4.189,-3.123 -7.749,-3.123 -5.865,0 -9.84,2.081 -12.354,6.454 v 33.316 c 0.055,2.36 -1.813,4.317 -4.172,4.375 -0.076,0.004 -0.152,0.004 -0.228,-0.003 -2.358,0.068 -4.327,-1.791 -4.391,-4.149 -0.003,-0.072 -0.003,-0.149 -0.003,-0.223 V 403.46 c 0,-3.127 -1.046,-5.417 -3.138,-6.459 -1.256,-0.625 -1.677,-1.664 -1.677,-2.917 0,-2.495 1.469,-3.958 4.396,-3.958 1.887,0 3.77,0.629 5.444,2.088 1.046,1.042 1.673,2.081 2.304,3.329 3.77,-4.162 9.001,-6.038 15.911,-6.038 11.093,0 16.749,6.246 16.749,18.53 v 29.57 c -0.416,1.246 -0.834,2.288 -1.675,3.124 z m 44.877,1.248 c -2.015,0 -3.829,-0.621 -5.039,-2.071 -0.811,-0.625 -1.413,-1.661 -2.021,-3.113 -3.025,3.527 -7.666,5.185 -13.72,5.185 -5.854,0 -10.292,-1.45 -13.114,-4.149 -2.622,-2.694 -4.033,-6.219 -4.033,-10.578 v -0.827 c 0,-4.353 1.408,-7.882 4.235,-10.575 3.227,-2.699 7.869,-4.149 13.72,-4.149 h 11.301 v -2.492 c 0,-4.354 -0.605,-7.258 -2.02,-9.123 -1.414,-2.071 -4.238,-3.113 -8.271,-3.113 -3.634,0 -7.063,0.828 -10.089,2.492 -0.809,0.415 -1.414,0.621 -2.021,0.621 -1.006,0 -2.014,-0.417 -2.62,-1.248 -0.606,-0.823 -1.012,-1.655 -1.012,-2.694 0,-1.242 0.606,-2.279 1.816,-3.11 3.632,-2.275 8.479,-3.525 14.53,-3.525 6.656,0 11.502,1.657 14.323,5.186 2.62,3.107 3.835,8.301 3.835,15.144 v 18.872 c 0,3.108 1.009,5.39 2.822,6.426 1.212,0.832 1.614,1.661 1.614,2.903 0.002,2.695 -1.408,3.938 -4.236,3.938 z m -8.671,-23.436 h -10.291 c -6.863,0 -10.492,2.696 -10.492,7.882 v 0.833 c 0,5.185 3.432,7.878 10.086,7.878 7.065,0 10.697,-3.524 10.697,-10.578 z"
         id="path9" />
    </g>
  </g>
</svg>
