<?xml version="1.0" encoding="UTF-8" standalone="no"?>
<svg
   xmlns:dc="http://purl.org/dc/elements/1.1/"
   xmlns:cc="http://creativecommons.org/ns#"
   xmlns:rdf="http://www.w3.org/1999/02/22-rdf-syntax-ns#"
   xmlns:svg="http://www.w3.org/2000/svg"
   xmlns="http://www.w3.org/2000/svg"
   xmlns:sodipodi="http://sodipodi.sourceforge.net/DTD/sodipodi-0.dtd"
   xmlns:inkscape="http://www.inkscape.org/namespaces/inkscape"
   width="420.86755"
   height="103"
   viewBox="0 0 420.86755 103"
   version="1.1"
   id="svg2"
   inkscape:version="0.91 r13725"
   sodipodi:docname="no-connection-compact.svg">
  <metadata
     id="metadata45">
    <rdf:RDF>
      <cc:Work
         rdf:about="">
        <dc:format>image/svg+xml</dc:format>
        <dc:type
           rdf:resource="http://purl.org/dc/dcmitype/StillImage" />
        <dc:title>Page 1</dc:title>
      </cc:Work>
    </rdf:RDF>
  </metadata>
  <defs
     id="defs43" />
  <sodipodi:namedview
     pagecolor="#ffffff"
     bordercolor="#666666"
     borderopacity="1"
     objecttolerance="10"
     gridtolerance="10"
     guidetolerance="10"
     inkscape:pageopacity="0"
     inkscape:pageshadow="2"
     inkscape:window-width="1440"
     inkscape:window-height="855"
     id="namedview41"
     showgrid="false"
     fit-margin-top="0"
     fit-margin-left="0"
     fit-margin-right="0"
     fit-margin-bottom="0"
     inkscape:zoom="1.4217391"
     inkscape:cx="242.15204"
     inkscape:cy="51.066324"
     inkscape:window-x="0"
     inkscape:window-y="0"
     inkscape:window-maximized="0"
     inkscape:current-layer="svg2" />
  <!-- Generator: Sketch 53.1 (72631) - https://sketchapp.com -->
  <title
     id="title4">Page 1</title>
  <desc
     id="desc6">Created with Sketch.</desc>
  <g
     id="g4756"
     transform="translate(0,13)">
    <rect
       id="Rectangle-2"
       x="250"
       y="37"
       width="72"
       height="4"
       style="fill:#34495e;fill-rule:evenodd;stroke:none;stroke-width:1" />
    <rect
       id="Rectangle-2-Copy"
       x="136"
       y="37"
       width="72"
       height="4"
       style="fill:#34495e;fill-rule:evenodd;stroke:none;stroke-width:1" />
    <path
       d="m 314.99975,50.10175 c -0.512,0 -1.023,-0.195 -1.414,-0.586 -0.781,-0.781 -0.781,-2.047 0,-2.828 l 7.637,-7.637 -7.637,-7.636 c -0.781,-0.781 -0.781,-2.048 0,-2.829 0.781,-0.781 2.047,-0.781 2.828,0 l 10.465,10.465 -10.465,10.465 c -0.391,0.391 -0.902,0.586 -1.414,0.586"
       id="Fill-1"
       inkscape:connector-curvature="0"
       style="fill:#34495e;fill-rule:evenodd;stroke:none;stroke-width:1" />
    <polygon
       transform="translate(0,-120)"
       id="Shape"
       points="257,138.037 236.537,158.5 257,178.963 248.963,187 228.5,166.537 208.037,187 200,178.963 220.463,158.5 200,138.037 208.037,130 228.5,150.463 248.963,130 "
       style="fill:#ef3f3f;fill-rule:evenodd;stroke:none;stroke-width:1" />
  </g>
  <g
     style="fill:#303e51;fill-rule:evenodd;stroke:none;stroke-width:1"
     id="Group">
    <path
       inkscape:connector-curvature="0"
       id="Fill-9"
       d="m 5.6532696,3.3288858 c -1.2675756,0 -2.2982683,1.0224137 -2.2982683,2.2789743 l 0,67.7842799 c 0,1.256561 1.0306927,2.279808 2.2982683,2.279808 l 92.6934604,0 c 1.266736,0 2.29827,-1.023247 2.29827,-2.279808 l 0,-67.7842799 c 0,-1.2565606 -1.031534,-2.2789743 -2.29827,-2.2789743 l -92.6934604,0 z M 98.34673,79 5.6532696,79 C 2.5359912,79 0,76.483546 0,73.39214 L 0,5.6078601 C 0,2.515621 2.5359912,0 5.6532696,0 L 98.34673,0 C 101.46401,0 104,2.515621 104,5.6078601 L 104,73.39214 C 104,76.483546 101.46401,79 98.34673,79 l 0,0 z"
       style="fill:#303e51;fill-opacity:1;stroke:#303e51;stroke-opacity:1" />
    <path
       inkscape:connector-curvature="0"
       id="Fill-11"
       d="M 7,72 97,72 97,7 7,7 7,72 Z m 3.3449,-3.338992 83.3102,0 0,-58.32118 -83.3102,0 0,58.32118 z" />
    <g
       transform="translate(33,17)"
       id="Group-3">
      <path
         inkscape:connector-curvature="0"
         id="path19"
         d="m 23.712,36.894 c 1.482,-1.56 2.808,-3.978 3.744,-6.942 1.716,0.546 3.354,1.17 4.914,2.028 -2.418,2.418 -5.382,4.134 -8.658,4.914 l 0,0 z M 6.708,32.058 c 1.56,-0.858 3.198,-1.482 4.836,-2.028 0.936,2.886 2.184,5.304 3.666,6.864 -3.276,-0.78 -6.162,-2.496 -8.502,-4.836 l 0,0 z m 8.58,-30.03 C 13.806,3.588 12.48,6.006 11.622,8.892 9.906,8.346 8.268,7.722 6.786,6.864 9.048,4.524 11.934,2.808 15.288,2.028 l 0,0 z m 17.004,4.836 c -1.56,0.858 -3.198,1.482 -4.914,2.028 -0.936,-2.964 -2.184,-5.304 -3.744,-6.864 3.354,0.78 6.318,2.496 8.658,4.836 l 0,0 z M 28.86,18.72 c -0.078,-2.964 -0.468,-5.772 -1.092,-8.268 1.95,-0.624 3.822,-1.404 5.538,-2.34 2.418,2.886 3.9,6.552 4.056,10.608 l -8.502,0 z m 0,1.56 8.58,0 c -0.156,3.978 -1.638,7.644 -4.056,10.608 -1.716,-0.936 -3.588,-1.716 -5.538,-2.34 0.624,-2.574 0.936,-5.304 1.014,-8.268 l 0,0 z m -8.58,7.02 0,-7.02 7.02,0 c -0.078,2.886 -0.39,5.538 -1.014,7.878 -1.95,-0.546 -3.9,-0.78 -6.006,-0.858 l 0,0 z m 0,9.984 0,-8.424 c 1.95,0.078 3.822,0.312 5.616,0.78 -1.404,4.212 -3.51,7.02 -5.616,7.644 l 0,0 z m -1.56,-8.424 0,8.424 c -2.106,-0.546 -4.29,-3.354 -5.616,-7.722 1.794,-0.39 3.666,-0.624 5.616,-0.702 l 0,0 z m -7.098,-8.58 7.098,0 0,7.02 c -2.106,0.078 -4.134,0.312 -6.084,0.78 -0.546,-2.262 -0.936,-4.914 -1.014,-7.8 l 0,0 z m -1.56,0 c 0.078,2.964 0.468,5.772 1.092,8.268 -1.95,0.624 -3.744,1.404 -5.538,2.34 C 3.198,28.002 1.716,24.336 1.56,20.28 l 8.502,0 z m 0,-1.56 -8.502,0 c 0.156,-3.978 1.638,-7.722 4.056,-10.608 1.716,0.936 3.588,1.716 5.538,2.34 -0.624,2.418 -1.014,5.226 -1.092,8.268 l 0,0 z m 8.658,-7.098 0,7.02 -7.098,0 c 0.078,-2.886 0.39,-5.538 1.014,-7.878 1.95,0.546 3.978,0.78 6.084,0.858 l 0,0 z m 0,-9.984 0,8.424 C 16.77,9.984 14.898,9.75 13.104,9.282 14.43,4.992 16.614,2.184 18.72,1.638 l 0,0 z m 1.56,8.424 0,-8.424 c 2.106,0.546 4.212,3.354 5.616,7.722 -1.794,0.39 -3.666,0.624 -5.616,0.702 l 0,0 z m 0,1.56 c 2.106,-0.078 4.056,-0.312 6.006,-0.78 0.546,2.262 0.936,4.914 1.014,7.878 l -7.02,0 0,-7.098 z M 19.5,0 l 0,0 C 8.736,0 0,8.736 0,19.5 0,30.264 8.736,39 19.422,39 30.186,39 38.922,30.264 38.922,19.5 39,8.658 30.264,0 19.5,0 l 0,0 z" />
    </g>
    <polygon
       points="95,65 95,62 8,62 8,65 "
       id="Fill-13" />
    <path
       inkscape:connector-curvature="0"
       id="Fill-14"
       d="m 43.404945,90.65743 17.19011,0 0,-11.31486 -17.19011,0 0,11.31486 z M 62.297528,94 41.702472,94 C 40.761296,94 40,93.25265 40,92.328715 l 0,-14.65743 C 40,76.748187 40.761296,76 41.702472,76 l 20.595056,0 C 63.238704,76 64,76.748187 64,77.671285 l 0,14.65743 C 64,93.25265 63.238704,94 62.297528,94 l 0,0 z" />
    <path
       inkscape:connector-curvature="0"
       id="Fill-15"
       d="m 49.482633,79.262345 0,2.117175 c 0,1.300364 1.129197,2.358135 2.517367,2.358135 1.38817,0 2.516495,-1.057771 2.516495,-2.358135 l 0,-2.117175 -5.033862,0 z M 52,87 c -3.30824,0 -6,-2.521497 -6,-5.62048 l 0,-3.748347 C 46,76.729413 46.778666,76 47.741317,76 l 8.517366,0 C 57.220462,76 58,76.729413 58,77.631173 l 0,3.748347 C 58,84.478503 55.30824,87 52,87 l 0,0 z" />
    <path
       inkscape:connector-curvature="0"
       id="Fill-16"
       d="m 29.578117,99.689369 43.842921,0 C 72.660096,96.606686 69.822629,94.310631 66.44743,94.310631 l -29.895706,0 c -3.374353,0 -6.212666,2.296055 -6.973607,5.378738 M 75.311555,103 27.688445,103 C 26.755023,103 26,102.25979 26,101.34468 26,95.640188 30.733057,91 36.551724,91 L 66.44743,91 C 72.266097,91 77,95.640188 77,101.34468 77,102.25979 76.244131,103 75.311555,103" />
  </g>
  <g
     style="display:none"
     id="g2990"
     transform="matrix(2.9266757,0,0,2.9266757,-6328.5449,-488.88988)"
     display="none">
    <path
       style="display:inline"
       id="path3"
       inkscape:connector-curvature="0"
       display="inline"
       d="m 2301,195.6 -5.7,-4.1 7,0 2.1,-6.6 2.2,6.6 3.9,0 c 0.5,-1 0.7,-2.1 0.7,-3.2 0.1,-4.1 -3.3,-7.4 -7.4,-7.4 0,-0.1 0,-0.2 0,-0.3 0,-5.9 -4.7,-10.6 -10.6,-10.6 -4.2,0 -7.9,2.5 -9.6,6 -0.8,-0.3 -1.6,-0.6 -2.5,-0.6 -2.7,0 -4.9,2 -5.4,4.6 -3.2,1.1 -5.5,4.2 -5.5,7.7 0,4.5 3.7,8.2 8.2,8.2 l 22.5,0 0.1,-0.3 0,0 z" />
    <g
       style="display:inline"
       id="g5"
       transform="translate(0.09999974,-0.1)"
       display="inline">
      <polygon
         id="polygon7"
         points="2302.2,195.4 2298.3,192.7 2303.1,192.7 2304.5,188.2 2305.9,192.7 2310.6,192.7 2306.8,195.4 2308.3,199.9 2304.5,197.1 2300.7,199.9 " />
    </g>
  </g>
  <path
     style="display:none"
     inkscape:connector-curvature="0"
     display="none"
     d="m 413.79633,40.657796 c 0,-0.4 0,-0.6 0,-1 0,-17.2 -13.8,-30.9 -30.9,-30.9 -12.4,0 -22.9,7.2 -27.9,17.6 -2.2,-1 -4.6,-1.8 -7.2,-1.8 -8,0 -14.4,5.8 -15.8,13.4 -9.4,3.1 -16.1,12.1 -16.1,22.5 0,13.1 10.7,23.9 23.9,23.9 l 74,0 0,0 c 12,0 21.7,-9.8 21.7,-21.9 0.2,-12 -9.5,-21.8 -21.7,-21.8 z"
     id="path4669" />
  <path
     style="display:none"
     inkscape:connector-curvature="0"
     display="none"
     d="m 413.49633,40.757796 c 0,-0.4 0,-0.6 0,-1 0,-17 -13.7,-30.7 -30.7,-30.7 -12.3,0 -22.8,7.1 -27.7,17.4 -2.2,-1 -4.6,-1.8 -7.1,-1.8 -7.9,0 -14.3,5.7 -15.6,13.3 -9.3,3.2 -16,12.1 -16,22.4 0,13.1 10.7,23.8 23.8,23.8 l 73.4,0 0,0 c 11.9,0 21.6,-9.7 21.6,-21.8 0.1,-11.9 -9.6,-21.6 -21.7,-21.6 z m -37.6,29.6 c -9.9,0 -17.8,-7.9 -17.8,-17.8 0,-9.9 7.9,-17.8 17.8,-17.8 l 0,-5.9 14.8,8.5 -14.8,8.5 0,-7.3 c -7.7,0 -13.9,6.1 -13.9,13.9 0,7.8 6.1,13.9 13.9,13.9 7.8,0 13.9,-6.2 13.9,-14 l 4,0 c -0.1,9.9 -8.2,18 -17.9,18 z"
     id="path4671" />
  <path
     style="display:none"
     inkscape:connector-curvature="0"
     display="none"
     d="m 413.89633,40.757796 c 0,-0.4 0,-0.6 0,-1 0,-17.1 -13.7,-30.7 -30.7,-30.7 -12.3,0 -22.8,7.1 -27.8,17.4 -2.2,-1 -4.6,-1.8 -7.1,-1.8 -7.9,0 -14.3,5.7 -15.7,13.3 -9.4,3.2 -16.1,12.1 -16.1,22.4 0,13.1 10.7,23.8 23.8,23.8 l 16.1,0 7.7,0 11.9,0 0,-34.3 -14.3,14.3 -2.8,-2.8 19,-19 19,19 -2.8,2.8 -14.1,-14.3 0,34.5 11.9,0 5.2,0 16.7,0 0,0 c 11.9,0 21.6,-9.7 21.6,-21.8 0.3,-12.1 -9.4,-21.8 -21.5,-21.8 z"
     id="path4673" />
  <path
     style="display:none"
     inkscape:connector-curvature="0"
     display="none"
     d="m 413.89633,40.957796 c 0,-0.4 0,-0.6 0,-1 0,-17.1 -13.7,-30.7 -30.7,-30.7 -12.3,0 -22.8,7.1 -27.8,17.5 -2.2,-1 -4.6,-1.8 -7.1,-1.8 -7.9,0 -14.3,5.8 -15.7,13.3 -9.3,3.1 -16.1,12 -16.1,22.3 0,13.1 10.7,23.8 23.8,23.8 l 73.6,0 c 11.9,0 21.6,-9.7 21.6,-21.8 0.2,-11.9 -9.5,-21.6 -21.6,-21.6 z m -18.9,14.1 -14.8,0 0,14.8 -4.1,0 0,-14.8 -14.7,0 0,-4.1 14.7,0 0,-14.8 4.1,0 0,14.8 14.8,0 0,4.1 z"
     id="path4675" />
  <path
     style="fill:none;fill-opacity:1;stroke:#303e51;stroke-opacity:1;stroke-width:3;stroke-miterlimit:4;stroke-dasharray:none"
     id="path4679"
     d="m 375.59633,42.657796 c 20.1,0 33.9,-7.7 33.9,-14.6 0,-6.9 -13.8,-14.6 -33.9,-14.6 -20.1,0 -33.9,7.7 -33.9,14.6 0,6.9 13.8,14.6 33.9,14.6 z"
     inkscape:connector-curvature="0" />
  <path
     id="path4681"
     d="m 341.69633,67.757796 0,5.7 0,3.2 c 0,6.9 13.9,14.6 33.9,14.6 20,0 33.9,-7.7 33.9,-14.6 l 0,-3.4 0,-5.8 c -5.8,6.2 -18.7,10.5 -33.9,10.5 -15.2,0 -28.2,-4 -33.9,-10.2 z"
     inkscape:connector-curvature="0"
     style="fill:none;stroke:#303e51;stroke-opacity:1;stroke-width:3;stroke-miterlimit:4;stroke-dasharray:none" />
  <path
     id="path4683"
     d="m 341.69633,51.557796 0,3.5 0,5.5 c 0,6.9 13.9,14.6 33.9,14.6 20,0 33.9,-7.7 33.9,-14.6 l 0,-8.9 c -5.8,6.2 -18.7,10.5 -33.9,10.5 -15.2,0 -28.2,-4.4 -33.9,-10.6 z"
     inkscape:connector-curvature="0"
     style="stroke:#303e51;stroke-opacity:1;fill:none;stroke-width:3;stroke-miterlimit:4;stroke-dasharray:none" />
  <path
     id="path4685"
     d="m 341.69633,35.457796 0,8.9 c 0,6.9 13.9,14.6 33.9,14.6 20,0 33.9,-7.7 33.9,-14.6 l 0,-8.9 c -5.8,6.2 -18.7,10.5 -33.9,10.5 -15.2,0 -28.2,-4.3 -33.9,-10.5 z"
     inkscape:connector-curvature="0"
     style="stroke:#303e51;stroke-opacity:1;fill:none;stroke-width:3;stroke-miterlimit:4;stroke-dasharray:none" />
  <g
     style="display:none"
     id="g3"
     transform="matrix(1.0191083,0,0,1.0191083,310.98486,-11.13265)"
     display="none">
    <g
       style="display:inline"
       id="g5_1_"
       display="inline">
      <polygon
         id="polygon7_1_"
         points="107.4,83.6 94.7,92.9 99.6,107.8 86.7,98.5 73.9,107.8 78.8,92.9 66.1,83.6 81.9,83.6 86.7,68.6 91.6,83.6 " />
    </g>
    <g
       style="display:inline"
       id="g9"
       transform="translate(6.0837499e-7,-0.49999939)"
       display="inline">
      <path
         id="path11"
         inkscape:connector-curvature="0"
         d="m 49.7,46.6 c 19.7,0 33.4,-7.6 33.4,-14.4 0,-6.8 -13.7,-14.3 -33.4,-14.3 -19.7,0 -33.4,7.6 -33.4,14.4 0,6.8 13.6,14.3 33.4,14.3 z" />
      <path
         id="path13"
         inkscape:connector-curvature="0"
         d="M 77.1,80.2 79,74.5 c -3.9,2.5 -9.1,4.5 -15.4,5.7 0,0 13.5,0 13.5,0 z" />
      <path
         id="path15"
         inkscape:connector-curvature="0"
         d="m 49.7,78.6 c 14.7,0 26,-4.2 30.9,-9.1 l 2.5,-7.8 0,-6.1 c -5.7,6.1 -18.4,10.3 -33.4,10.3 -15,0 -27.8,-4.5 -33.4,-10.6 l 0,3.5 0,5.4 c 0,6.8 13.6,14.4 33.4,14.4 z" />
      <path
         id="path17"
         inkscape:connector-curvature="0"
         d="m 49.7,62.6 c 19.7,0 33.4,-7.6 33.4,-14.4 l 0,-8.7 C 77.4,45.6 64.7,49.8 49.7,49.8 34.7,49.8 22,45.6 16.3,39.5 l 0,8.7 c 0,6.8 13.6,14.4 33.4,14.4 z" />
      <path
         id="path19-6"
         inkscape:connector-curvature="0"
         d="m 58.4,81 c -2.8,0.3 -5.7,0.4 -8.7,0.4 -15,0 -27.7,-4.1 -33.4,-10.2 l 0,5.7 0,3.2 c 0,6.8 13.6,14.4 33.4,14.4 8.9,0 16.6,-1.6 22.4,-3.9 C 72,90.6 58.4,81 58.4,81 Z" />
    </g>
  </g>
</svg>
