<?xml version="1.0" encoding="UTF-8" standalone="no"?>
<svg
   inkscape:version="1.1.2 (0a00cf5339, 2022-02-04)"
   sodipodi:docname="no-datasets.svg"
   id="svg35"
   version="1.1"
   viewBox="0 0 366 228"
   height="228"
   width="366"
   xmlns:inkscape="http://www.inkscape.org/namespaces/inkscape"
   xmlns:sodipodi="http://sodipodi.sourceforge.net/DTD/sodipodi-0.dtd"
   xmlns="http://www.w3.org/2000/svg"
   xmlns:svg="http://www.w3.org/2000/svg"
   xmlns:rdf="http://www.w3.org/1999/02/22-rdf-syntax-ns#"
   xmlns:cc="http://creativecommons.org/ns#"
   xmlns:dc="http://purl.org/dc/elements/1.1/">
  <metadata
     id="metadata39">
    <rdf:RDF>
      <cc:Work
         rdf:about="">
        <dc:format>image/svg+xml</dc:format>
        <dc:type
           rdf:resource="http://purl.org/dc/dcmitype/StillImage" />
        <dc:title>Group</dc:title>
      </cc:Work>
    </rdf:RDF>
  </metadata>
  <sodipodi:namedview
     fit-margin-bottom="0"
     fit-margin-right="0"
     fit-margin-left="0"
     fit-margin-top="0"
     inkscape:document-rotation="0"
     inkscape:current-layer="svg35"
     inkscape:window-maximized="0"
     inkscape:window-y="27"
     inkscape:window-x="0"
     inkscape:cy="116.74694"
     inkscape:cx="196.15857"
     inkscape:zoom="0.84370519"
     showgrid="false"
     id="namedview37"
     inkscape:window-height="1376"
     inkscape:window-width="1280"
     inkscape:pageshadow="2"
     inkscape:pageopacity="0"
     guidetolerance="10"
     gridtolerance="10"
     objecttolerance="10"
     borderopacity="1"
     bordercolor="#666666"
     pagecolor="#ffffff"
     inkscape:pagecheckerboard="0" />
  <!-- Generator: Sketch 48.2 (47327) - http://www.bohemiancoding.com/sketch -->
  <title
     id="title2">Group</title>
  <desc
     id="desc4">Created with Sketch.</desc>
  <defs
     id="defs6">
    <marker
       inkscape:stockid="TriangleOutM"
       orient="auto"
       refY="0"
       refX="0"
       id="TriangleOutM"
       style="overflow:visible"
       inkscape:isstock="true">
      <path
         id="path4289"
         d="M 5.77,0 -2.88,5 V -5 Z"
         style="fill:#000000;fill-opacity:1;fill-rule:evenodd;stroke:#000000;stroke-width:1pt;stroke-opacity:1"
         transform="scale(0.4)"
         inkscape:connector-curvature="0" />
    </marker>
    <marker
       inkscape:stockid="TriangleOutL"
       orient="auto"
       refY="0"
       refX="0"
       id="TriangleOutL"
       style="overflow:visible"
       inkscape:isstock="true">
      <path
         id="path4286"
         d="M 5.77,0 -2.88,5 V -5 Z"
         style="fill:#000000;fill-opacity:1;fill-rule:evenodd;stroke:#000000;stroke-width:1pt;stroke-opacity:1"
         transform="scale(0.8)"
         inkscape:connector-curvature="0" />
    </marker>
    <marker
       inkscape:stockid="Arrow1Lend"
       orient="auto"
       refY="0"
       refX="0"
       id="Arrow1Lend"
       style="overflow:visible"
       inkscape:isstock="true">
      <path
         id="path4147"
         d="M 0,0 5,-5 -12.5,0 5,5 Z"
         style="fill:#000000;fill-opacity:1;fill-rule:evenodd;stroke:#000000;stroke-width:1pt;stroke-opacity:1"
         transform="matrix(-0.8,0,0,-0.8,-10,0)"
         inkscape:connector-curvature="0" />
    </marker>
  </defs>
  <path
     inkscape:connector-curvature="0"
     id="Fill-11"
     d="m 302.24583,23.188498 h 0.0123 z m -4.74737,-4.259056 c -0.37485,0 -0.75094,0.08385 -1.10114,0.250315 -0.62024,0.294706 -1.08881,0.813832 -1.31816,1.461199 -0.23059,0.647366 -0.19483,1.345289 0.0999,1.965528 0.29471,0.620239 0.81384,1.088809 1.46121,1.319395 1.33666,0.473502 2.80773,-0.226887 3.28493,-1.562312 0.47474,-1.336657 -0.22565,-2.810187 -1.56231,-3.284923 -0.28238,-0.09988 -0.57339,-0.149202 -0.8644,-0.149202 z M 297.49353,29 c -0.82986,0 -1.67576,-0.139338 -2.50316,-0.434044 -1.88661,-0.670795 -3.40084,-2.035814 -4.2603,-3.843508 -0.85946,-1.81016 -0.96427,-3.844741 -0.29224,-5.732585 0.66957,-1.886612 2.03459,-3.398367 3.84352,-4.259056 1.80893,-0.859456 3.84352,-0.965501 5.73014,-0.293473 3.89654,1.384748 5.93975,5.680796 4.555,9.57486 v 0.0012 C 303.47521,27.081329 300.57747,29 297.49353,29 Z"
     style="fill:#303e51;fill-rule:evenodd;stroke:none;stroke-width:1" />
  <path
     inkscape:connector-curvature="0"
     id="Fill-12"
     d="m 7.499383,170.92764 c -1.417468,0 -2.572169,1.15451 -2.572169,2.57174 0,1.41847 1.154701,2.57298 2.572169,2.57298 1.418702,0 2.573403,-1.15451 2.573403,-2.57298 0,-1.41723 -1.154701,-2.57174 -2.573403,-2.57174 m 0,10.07236 C 3.362941,181 0,177.63514 0,173.49938 0,169.36485 3.362941,166 7.499383,166 11.635825,166 15,169.36485 15,173.49938 15,177.63514 11.635825,181 7.499383,181"
     style="fill:#303e51;fill-rule:evenodd;stroke:none;stroke-width:1" />
  <path
     inkscape:connector-curvature="0"
     id="path24"
     d="m 46.015744,103.89372 4.369825,1.32737 -1.019229,-4.39405 z M 53.621858,111 c -0.234565,0 -0.470322,-0.034 -0.700124,-0.10328 l -12.242653,-3.71686 c -0.812049,-0.24646 -1.430016,-0.90252 -1.619335,-1.71818 -0.18932,-0.81567 0.07859,-1.67124 0.700124,-2.24045 l 9.388574,-8.594432 c 0.621539,-0.570381 1.507411,-0.769896 2.318269,-0.522262 0.81324,0.24646 1.428826,0.902515 1.618145,1.718183 l 2.855269,12.310121 c 0.18932,0.81802 -0.07739,1.67124 -0.700124,2.24045 C 54.793495,110.78171 54.21363,111 53.621858,111 Z"
     style="fill:#303e51;fill-rule:evenodd;stroke:none;stroke-width:1" />
  <path
     inkscape:connector-curvature="0"
     id="path26"
     d="m 340.3079,138.23967 3.77226,2.81249 0.54887,-4.67603 z M 346.01714,148 c -0.51824,0 -1.03281,-0.16551 -1.46162,-0.4855 l -10.57066,-7.88207 c -0.70079,-0.52229 -1.07079,-1.37927 -0.96788,-2.24852 0.10169,-0.86924 0.65914,-1.61834 1.46162,-1.96408 l 12.10701,-5.22038 c 0.80003,-0.34574 1.7287,-0.23662 2.42949,0.28566 0.70202,0.52351 1.07079,1.3805 0.96787,2.24974 l -1.53512,13.10123 c -0.10169,0.86924 -0.66036,1.61834 -1.46284,1.96408 C 346.67382,147.93379 346.34548,148 346.01714,148 Z"
     style="fill:#303e51;fill-rule:evenodd;stroke:none;stroke-width:1" />
  <path
     inkscape:connector-curvature="0"
     id="path28"
     d="m 89.48319,18 c -1.02527,0 -1.98882,-0.611781 -2.3629,-1.598918 L 82.15392,3.2709441 c -0.477369,-1.2637788 0.19271,-2.66161329 1.49759,-3.12349581 1.30237,-0.45822646 2.74958,0.18645917 3.2282,1.45023801 l 4.96637,13.1301377 c 0.47737,1.263779 -0.19271,2.661614 -1.49759,3.123496 C 90.06257,17.951252 89.77162,18 89.48319,18"
     style="fill:#303e51;fill-rule:evenodd;stroke:none;stroke-width:1" />
  <path
     inkscape:connector-curvature="0"
     id="Fill-16"
     d="M 80.435114,14 C 79.44313,14 78.51086,13.367646 78.14892,12.347313 77.687051,11.043555 78.335374,9.5974546 79.597899,9.1200399 L 92.72889,4.1519028 c 1.26131,-0.4723761 2.66032,0.1927295 3.12219,1.4990069 0.46187,1.303758 -0.18645,2.7498588 -1.44898,3.2272736 L 81.272329,13.84632 C 80.995695,13.949613 80.714186,14 80.435114,14"
     style="fill:#303e51;fill-rule:evenodd;stroke:none;stroke-width:1" />
  <g
     transform="translate(-4,-16)"
     id="g3355">
    <path
       style="fill:#303e51;fill-rule:evenodd;stroke:none;stroke-width:1"
       d="m 196.53068,244 c -0.70996,0 -1.41497,-0.28769 -1.9023,-0.84435 l -9.05877,-10.32866 c -0.87199,-0.99288 -0.72604,-2.46522 0.32282,-3.28852 1.05133,-0.82447 2.60854,-0.68648 3.47929,0.30639 l 9.05878,10.32867 c 0.87199,0.99287 0.72604,2.46522 -0.32406,3.28852 C 197.64509,243.82458 197.08603,244 196.53068,244"
       id="Fill-17"
       inkscape:connector-curvature="0" />
    <path
       style="fill:#303e51;fill-rule:evenodd;stroke:none;stroke-width:1"
       d="m 186.49282,244 c -0.716,0 -1.42701,-0.30426 -1.91848,-0.89299 -0.8794,-1.05007 -0.73221,-2.60724 0.32682,-3.47797 l 11.01686,-9.05977 c 1.05903,-0.87073 2.63073,-0.72726 3.50764,0.32529 0.8794,1.05006 0.73221,2.60723 -0.32682,3.47796 l -11.01686,9.05854 C 187.6167,243.81448 187.05289,244 186.49282,244"
       id="Fill-18"
       inkscape:connector-curvature="0" />
  </g>
  <path
     style="fill:#303e51;fill-rule:evenodd;stroke:none;stroke-width:1"
     inkscape:connector-curvature="0"
     id="path14"
     d="M 114,182.99854 H 252 V 75 H 114 Z M 114,69 H 252 V 45 H 114 Z m -6,120 H 258 V 39 H 108 Z" />
  <polygon
     style="fill:#303e51;fill-rule:evenodd;stroke:none;stroke-width:1"
     points="39,21 132,21 132,15 39,15 "
     id="Fill-13"
     transform="translate(108,39)" />
  <polygon
     style="fill:#303e51;fill-rule:evenodd;stroke:none;stroke-width:1"
     points="15,21 21,21 21,15 15,15 "
     id="Fill-14"
     transform="translate(108,39)" />
  <polygon
     style="fill:#303e51;fill-rule:evenodd;stroke:none;stroke-width:1"
     points="27,21 33,21 33,15 27,15 "
     id="Fill-15"
     transform="translate(108,39)" />
  <g
     id="Dataset"
     stroke="none"
     stroke-width="1"
     fill="none"
     fill-rule="evenodd"
     style="fill:#303e51;fill-opacity:1"
     transform="matrix(3.3012565,0,0,3.3012565,149.98744,96.288691)">
    <g
       transform="translate(-587,-334)"
       fill="#555D72"
       fill-rule="nonzero"
       id="Group-16"
       style="fill:#303e51;fill-opacity:1">
      <g
         transform="translate(180,-3)"
         id="g829"
         style="fill:#303e51;fill-opacity:1">
        <g
           id="Groups-Copy"
           transform="translate(361,266)"
           style="fill:#303e51;fill-opacity:1">
          <g
             id="Group"
             transform="translate(21,70)"
             style="fill:#303e51;fill-opacity:1">
            <path
               d="M 45,6.8092229 V 17.25835 C 45,18.216258 44.37043,19 43.600956,19 H 29.612369 c -0.770094,0 -1.399045,-0.783742 -1.399045,-1.74165 v -0.475127 l 13.245415,2.72e-4 c 0.726726,0 1.328661,-0.699079 1.393299,-1.583716 l 0.0057,-0.157934 -4.6e-4,-8.2326221 z M 41.786676,5.7009704 v 8.6792566 c 0,0.795657 -0.62957,1.446649 -1.399045,1.446649 H 26.399044 C 25.628951,15.826876 25,15.175884 25,14.380227 V 5.7009704 Z M 29.896036,1 c 0.769475,0 1.399045,0.6509922 1.399045,1.4466494 v 0 0.3610222 h 9.09255 c 0.769475,0 1.399045,0.6516324 1.399045,1.4466494 v 0 0.7233247 H 25 V 2.4466494 C 25,1.6509922 25.628951,1 26.399044,1 v 0 z"
               id="Combined-Shape"
               style="fill:#303e51;fill-opacity:1" />
          </g>
        </g>
      </g>
    </g>
  </g>
</svg>
