<?xml version="1.0" encoding="UTF-8" standalone="no"?>
<!-- Generator: Adobe Illustrator 21.0.0, SVG Export Plug-In . SVG Version: 6.00 Build 0)  -->

<svg
   xmlns:dc="http://purl.org/dc/elements/1.1/"
   xmlns:cc="http://creativecommons.org/ns#"
   xmlns:rdf="http://www.w3.org/1999/02/22-rdf-syntax-ns#"
   xmlns:svg="http://www.w3.org/2000/svg"
   xmlns="http://www.w3.org/2000/svg"
   xmlns:sodipodi="http://sodipodi.sourceforge.net/DTD/sodipodi-0.dtd"
   xmlns:inkscape="http://www.inkscape.org/namespaces/inkscape"
   version="1.1"
   id="Warstwa_1"
   x="0px"
   y="0px"
   width="32"
   height="32"
   viewBox="0 0 32 32"
   xml:space="preserve"
   inkscape:version="0.91 r13725"
   sodipodi:docname="oneprovider-logo.svg"><metadata
     id="metadata51"><rdf:RDF><cc:Work
         rdf:about=""><dc:format>image/svg+xml</dc:format><dc:type
           rdf:resource="http://purl.org/dc/dcmitype/StillImage" /><dc:title></dc:title></cc:Work></rdf:RDF></metadata><defs
     id="defs49" /><sodipodi:namedview
     pagecolor="#ffffff"
     bordercolor="#666666"
     borderopacity="1"
     objecttolerance="10"
     gridtolerance="10"
     guidetolerance="10"
     inkscape:pageopacity="0"
     inkscape:pageshadow="2"
     inkscape:window-width="1706"
     inkscape:window-height="660"
     id="namedview47"
     showgrid="false"
     inkscape:zoom="3.1624758"
     inkscape:cx="-33.042522"
     inkscape:cy="21.614061"
     inkscape:window-x="0"
     inkscape:window-y="0"
     inkscape:window-maximized="0"
     inkscape:current-layer="Warstwa_1" /><style
     type="text/css"
     id="style3">
	.st0{fill:#1E1E1C;}
	.st1{fill:#E84041;}
	.st2{fill:#595959;}
</style><g
     id="g29"
     transform="matrix(0.85183891,0,0,0.85183891,-17.73282,-16.923573)"><g
       id="g31"><path
         class="st1"
         d="m 53.9,45.5 c -2.6,2.5 -8,4.3 -14.3,4.3 -6.3,0 -11.7,-1.7 -14.3,-4.3 -1.1,1 -1.7,2.2 -1.7,3.4 0,4.2 7.2,7.7 16,7.7 8.8,0 16,-3.4 16,-7.7 0,-1.3 -0.7,-2.4 -1.7,-3.4 z"
         id="path33"
         inkscape:connector-curvature="0"
         style="fill:#e84041" /><path
         class="st1"
         d="m 53.9,35.2 c -2.6,2.5 -8,4.3 -14.3,4.3 -6.3,0 -11.7,-1.7 -14.3,-4.3 -1.1,1 -1.7,2.2 -1.7,3.4 0,4.2 7.2,7.7 16,7.7 8.8,0 16,-3.4 16,-7.7 0,-1.2 -0.7,-2.3 -1.7,-3.4 z"
         id="path35"
         inkscape:connector-curvature="0"
         style="fill:#e84041" /><ellipse
         class="st1"
         cx="39.599998"
         cy="28.4"
         rx="16"
         ry="7.6999998"
         id="ellipse37"
         style="fill:#e84041" /></g></g></svg>