<?xml version="1.0" encoding="UTF-8" standalone="no"?>
<svg
   inkscape:version="1.1-dev (9017afb, 2021-01-01)"
   sodipodi:docname="open-data.svg"
   id="svg90"
   version="1.1"
   viewBox="0 0 318 276"
   height="276px"
   width="318px"
   xmlns:inkscape="http://www.inkscape.org/namespaces/inkscape"
   xmlns:sodipodi="http://sodipodi.sourceforge.net/DTD/sodipodi-0.dtd"
   xmlns="http://www.w3.org/2000/svg"
   xmlns:svg="http://www.w3.org/2000/svg"
   xmlns:rdf="http://www.w3.org/1999/02/22-rdf-syntax-ns#"
   xmlns:cc="http://creativecommons.org/ns#"
   xmlns:dc="http://purl.org/dc/elements/1.1/">
  <metadata
     id="metadata94">
    <rdf:RDF>
      <cc:Work
         rdf:about="">
        <dc:format>image/svg+xml</dc:format>
        <dc:type
           rdf:resource="http://purl.org/dc/dcmitype/StillImage" />
      </cc:Work>
    </rdf:RDF>
  </metadata>
  <sodipodi:namedview
     inkscape:current-layer="svg90"
     inkscape:window-maximized="1"
     inkscape:window-y="23"
     inkscape:window-x="0"
     inkscape:cy="138"
     inkscape:cx="159.02857"
     inkscape:zoom="2.6630435"
     showgrid="false"
     id="namedview92"
     inkscape:window-height="1395"
     inkscape:window-width="2560"
     inkscape:pageshadow="2"
     inkscape:pageopacity="0"
     guidetolerance="10"
     gridtolerance="10"
     objecttolerance="10"
     borderopacity="1"
     bordercolor="#666666"
     pagecolor="#ffffff"
     inkscape:pagecheckerboard="0" />
  <title
     id="title18">opendata</title>
  <defs
     id="defs56">
    <linearGradient
       gradientUnits="userSpaceOnUse"
       gradientTransform="scale(1.3183684,0.75851333)"
       id="linearGradient-1"
       y2="258.40021"
       x2="0"
       y1="258.40021"
       x1="55.371473">
      <stop
         id="stop20"
         offset="0%"
         stop-color="#EE3F3F" />
      <stop
         id="stop22"
         offset="100%"
         stop-color="#C03635" />
    </linearGradient>
    <linearGradient
       gradientUnits="userSpaceOnUse"
       gradientTransform="scale(1.3183684,0.75851333)"
       id="linearGradient-2"
       y2="258.40021"
       x2="185.83576"
       y1="258.40021"
       x1="241.20724">
      <stop
         id="stop25"
         offset="0%"
         stop-color="#EE3F3F" />
      <stop
         id="stop27"
         offset="56%"
         stop-color="#C03635" />
    </linearGradient>
    <linearGradient
       gradientUnits="userSpaceOnUse"
       gradientTransform="scale(0.75310303,1.3278396)"
       id="linearGradient-3"
       y2="138.94751"
       x2="61.223912"
       y1="138.94751"
       x1="100.75341">
      <stop
         id="stop30"
         offset="0%"
         stop-color="#862822" />
      <stop
         id="stop32"
         offset="100%"
         stop-color="#C03635" />
    </linearGradient>
    <linearGradient
       gradientUnits="userSpaceOnUse"
       gradientTransform="scale(0.75310303,1.3278396)"
       id="linearGradient-4"
       y2="138.94751"
       x2="375.7786"
       y1="138.94751"
       x1="325.32069">
      <stop
         id="stop35"
         offset="0%"
         stop-color="#862822" />
      <stop
         id="stop37"
         offset="100%"
         stop-color="#C03635" />
    </linearGradient>
    <linearGradient
       gradientUnits="userSpaceOnUse"
       gradientTransform="scale(0.93889115,1.0650862)"
       id="linearGradient-5"
       y2="125.96387"
       x2="65.541174"
       y1="117.78713"
       x1="245.71868">
      <stop
         id="stop40"
         offset="0%"
         stop-color="#50783E" />
      <stop
         id="stop42"
         offset="18%"
         stop-color="#55673A" />
      <stop
         id="stop44"
         offset="47%"
         stop-color="#5C5134" />
      <stop
         id="stop46"
         offset="75%"
         stop-color="#604430" />
      <stop
         id="stop48"
         offset="100%"
         stop-color="#613F2F" />
    </linearGradient>
    <linearGradient
       gradientUnits="userSpaceOnUse"
       gradientTransform="scale(2.4397502,0.40987803)"
       id="linearGradient-6"
       y2="454.47334"
       x2="65.170607"
       y1="380.09747"
       x1="65.170607">
      <stop
         id="stop51"
         offset="0%"
         stop-color="#ED4F52" />
      <stop
         id="stop53"
         offset="100%"
         stop-color="#C03635" />
    </linearGradient>
  </defs>
  <polygon
     id="Path"
     fill="url(#linearGradient-1)"
     points="0,217 15.484849,196 0,175 73,175 73,217 "
     style="fill:url(#linearGradient-1);fill-rule:nonzero;stroke:none;stroke-width:1" />
  <polygon
     id="polygon59"
     fill="url(#linearGradient-2)"
     points="318,217 302.51206,196 318,175 245,175 245,217 "
     style="fill:url(#linearGradient-2);fill-rule:nonzero;stroke:none;stroke-width:1" />
  <polygon
     id="polygon61"
     fill="url(#linearGradient-3)"
     points="35,151 73,176.15019 73,218 35,192.84981 "
     style="fill:url(#linearGradient-3);fill-rule:nonzero;stroke:none;stroke-width:1" />
  <polygon
     id="polygon63"
     fill="url(#linearGradient-4)"
     points="283,151 245,176.15019 245,218 283,192.84981 "
     style="fill:url(#linearGradient-4);fill-rule:nonzero;stroke:none;stroke-width:1" />
  <path
     d="m 158.99977,137.96272 110.5654,17.94692 C 259.71583,216.5804 201.7093,258.40327 141.05886,248.56516 80.408408,238.72705 38.599548,180.68656 48.434363,120.08846 58.269178,59.49036 116.29023,17.594838 176.94068,27.432947 236.93741,37.169333 278.63005,94.090859 269.82666,154.253 Z"
     id="path65"
     fill="#ee3f3f"
     style="fill-rule:nonzero;stroke:none;stroke-width:1" />
  <circle
     id="Oval"
     fill="#3d3a35"
     transform="rotate(-45)"
     cx="14.886487"
     cy="210.25557"
     r="97.41378"
     style="fill-rule:nonzero;stroke:none;stroke-width:1" />
  <path
     d="M 233,52.63102 C 200.58108,24.371439 154.90255,17.12543 115.35261,33.968557 75.802678,50.811684 49.319779,88.789073 47.144561,131.78125 44.969343,174.77343 67.483416,215.23808 105.1307,236 110.14061,167.34969 159.9776,82.171368 233,52.63102 Z"
     id="path68"
     fill="url(#linearGradient-5)"
     opacity="0.13"
     style="mix-blend-mode:screen;fill:url(#linearGradient-5);fill-rule:nonzero;stroke:none;stroke-width:1" />
  <rect
     id="Rectangle"
     fill="url(#linearGradient-6)"
     x="34"
     y="150"
     width="250"
     height="42"
     style="fill:url(#linearGradient-6);fill-rule:nonzero;stroke:none;stroke-width:1" />
  <g
     aria-label="OPEN DATA"
     id="OPEN-DATA"
     style="fill:#ffffff">
    <path
       d="m 75.880127,158.94824 q 6.458008,0 9.5625,4.15039 2.423828,3.23731 2.423828,8.28418 0,5.46192 -2.772461,9.08106 -3.253906,4.25 -9.280273,4.25 -5.62793,0 -8.848633,-3.71875 -2.87207,-3.58594 -2.87207,-9.06446 0,-4.94726 2.457031,-8.46679 3.154297,-4.51563 9.330078,-4.51563 z m 0.332031,22.81055 q 4.366211,0 6.308594,-3.12109 1.958984,-3.1377 1.958984,-7.20508 0,-4.29981 -2.257812,-6.92285 -2.241211,-2.62305 -6.142578,-2.62305 -3.785157,0 -6.175782,2.60644 -2.390625,2.58985 -2.390625,7.65332 0,4.05079 2.041993,6.83985 2.058593,2.77246 6.657226,2.77246 z m -0.232422,-22.81055 z"
       id="path1631" />
    <path
       d="m 92.099854,159.6123 h 10.973636 q 3.2539,0 5.24609,1.84278 1.99219,1.82617 1.99219,5.14648 0,2.85547 -1.77637,4.98047 -1.77637,2.1084 -5.46191,2.1084 H 95.403564 V 184 h -3.30371 z m 14.874996,7.00586 q 0,-2.68945 -1.99218,-3.65234 -1.09571,-0.51465 -3.00489,-0.51465 h -6.574216 v 8.4502 h 6.574216 q 2.22461,0 3.60254,-0.94629 1.39453,-0.94629 1.39453,-3.33692 z"
       id="path1633" />
    <path
       d="m 114.81079,159.6123 h 17.78027 v 2.98829 h -14.55957 v 7.40429 h 13.46387 v 2.82227 h -13.46387 v 8.26758 h 14.8086 V 184 h -18.0293 z m 9.01465,0 z"
       id="path1635" />
    <path
       d="m 137.2063,159.6123 h 3.90137 l 12.31836,19.75586 V 159.6123 h 3.13769 V 184 h -3.70215 L 140.3606,164.26074 V 184 h -3.1543 z m 9.46289,0 z"
       id="path1637" />
    <path
       d="m 180.56958,181.17773 q 1.67676,0 2.75586,-0.34863 1.92578,-0.64746 3.1543,-2.49023 0.97949,-1.47754 1.41113,-3.78516 0.24902,-1.37793 0.24902,-2.55664 0,-4.53223 -1.80957,-7.03906 -1.79297,-2.50684 -5.79394,-2.50684 h -5.86035 v 18.72656 z m -9.21387,-21.56543 h 9.87793 q 5.03028,0 7.80274,3.56934 2.47363,3.2207 2.47363,8.25098 0,3.88476 -1.46094,7.02246 Q 187.47583,184 181.20044,184 h -9.84473 z"
       id="path1639" />
    <path
       d="m 208.29419,174.00586 -3.70215,-10.77441 -3.93457,10.77441 z m -5.42871,-14.39356 h 3.73535 L 215.44946,184 h -3.61914 l -2.47363,-7.30469 h -9.64551 L 197.07153,184 h -3.38672 z m 1.70996,0 z"
       id="path1641" />
    <path
       d="m 233.71948,159.6123 v 2.90528 h -8.21777 V 184 h -3.35352 v -21.48242 h -8.21777 v -2.90528 z"
       id="path1643" />
    <path
       d="m 246.75171,174.00586 -3.70215,-10.77441 -3.93457,10.77441 z M 241.323,159.6123 h 3.73535 L 253.90698,184 h -3.61914 l -2.47363,-7.30469 H 238.1687 L 235.52905,184 h -3.38672 z m 1.70996,0 z"
       id="path1645" />
  </g>
  <path
     d="m 170.77263,72.000577 h -33.08099 c -0.44461,-0.01182 -0.87509,0.158308 -1.19364,0.471739 -0.31856,0.31343 -0.498,0.743559 -0.498,1.192687 v 46.881337 c 0,0.91924 0.73795,1.66443 1.64827,1.66443 h 4.95925 v 5.12468 c -1e-5,0.44397 0.17562,0.86955 0.48787,1.18212 0.31224,0.31256 0.73521,0.4862 1.17486,0.48237 h 33.06652 c 0.43965,0.004 0.86262,-0.16981 1.17486,-0.48237 0.31225,-0.31257 0.48813,-0.73815 0.48813,-1.18212 V 80.45411 c 0.007,-0.441453 -0.1588,-0.867922 -0.4625,-1.185553 -0.3037,-0.317632 -0.71994,-0.500397 -1.15711,-0.508073 h -4.95926 v -5.095481 c 0,-0.919237 -0.73795,-1.664426 -1.64826,-1.664426 z M 139.33991,118.86731 V 75.32943 h 29.78445 v 43.53788 z m 36.39197,-36.734173 v 43.523283 h -29.76999 v -3.44565 h 24.81074 c 0.91031,0 1.64826,-0.74519 1.64826,-1.66443 V 82.133137 Z"
     id="Shape"
     fill="#ffffff"
     style="fill-rule:nonzero;stroke:none;stroke-width:1" />
  <path
     d="m 165.14153,79.008725 h -20.28306 c -0.64252,-0.07071 -1.26368,0.292604 -1.60356,0.937925 -0.33988,0.645321 -0.33988,1.461379 0,2.1067 0.33988,0.645321 0.96104,1.008639 1.60356,0.937925 h 20.28306 c 0.64252,0.07071 1.26368,-0.292604 1.60356,-0.937925 0.33988,-0.645321 0.33988,-1.461379 0,-2.1067 -0.33988,-0.645321 -0.96104,-1.008639 -1.60356,-0.937925 z"
     id="path75"
     fill="#ffffff"
     style="fill-rule:nonzero;stroke:none;stroke-width:1" />
  <path
     d="M 158.43547,90 C 159.32216,89.903413 160,89.036902 160,88 c 0,-1.036902 -0.67784,-1.903414 -1.56453,-2 h -6.87094 C 150.67784,86.096586 150,86.963098 150,88 c 0,1.036902 0.67784,1.903413 1.56453,2 z"
     id="path77"
     fill="#ffffff"
     style="fill-rule:nonzero;stroke:none;stroke-width:1" />
  <path
     d="m 165.14153,93.008725 h -20.28306 c -0.64252,-0.07071 -1.26368,0.292604 -1.60356,0.937925 -0.33988,0.645321 -0.33988,1.461379 0,2.1067 0.33988,0.645321 0.96104,1.008639 1.60356,0.937925 h 20.28306 c 0.64252,0.07071 1.26368,-0.292604 1.60356,-0.937925 0.33988,-0.645321 0.33988,-1.461379 0,-2.1067 -0.33988,-0.645321 -0.96104,-1.008639 -1.60356,-0.937925 z"
     id="path79"
     fill="#ffffff"
     style="fill-rule:nonzero;stroke:none;stroke-width:1" />
  <path
     d="m 165.14153,99.008725 h -20.28306 c -0.64252,-0.07071 -1.26368,0.292604 -1.60356,0.937925 -0.33988,0.64532 -0.33988,1.46138 0,2.1067 0.33988,0.64532 0.96104,1.00864 1.60356,0.93793 h 20.28306 c 0.64252,0.0707 1.26368,-0.29261 1.60356,-0.93793 0.33988,-0.64532 0.33988,-1.46138 0,-2.1067 -0.33988,-0.645321 -0.96104,-1.008639 -1.60356,-0.937925 z"
     id="path81"
     fill="#ffffff"
     style="fill-rule:nonzero;stroke:none;stroke-width:1" />
  <path
     d="m 151.04801,106.00872 h -7.09603 c -0.67484,-0.0707 -1.32726,0.29261 -1.68424,0.93793 -0.35699,0.64532 -0.35699,1.46138 0,2.1067 0.35698,0.64532 1.0094,1.00864 1.68424,0.93793 h 7.09603 c 0.67485,0.0707 1.32727,-0.29261 1.68425,-0.93793 0.35699,-0.64532 0.35699,-1.46138 0,-2.1067 -0.35698,-0.64532 -1.0094,-1.00864 -1.68425,-0.93793 z"
     id="path83"
     fill="#ffffff"
     style="fill-rule:nonzero;stroke:none;stroke-width:1" />
  <path
     d="m 161,106 c -2.76142,0 -5,2.23858 -5,5 0,2.76142 2.23858,5 5,5 2.76142,0 5,-2.23858 5,-5 -0.008,-2.7581 -2.2419,-4.99199 -5,-5 z m 0,6.67638 c -0.67933,0.006 -1.29506,-0.39876 -1.55913,-1.02469 -0.26407,-0.62593 -0.12427,-1.34935 0.354,-1.83182 0.47828,-0.48247 1.20045,-0.62859 1.82866,-0.36999 0.62822,0.25859 1.03828,0.87077 1.03828,1.55012 3e-5,0.92018 -0.74167,1.66838 -1.66181,1.67638 z"
     id="path85"
     fill="#ffffff"
     style="fill-rule:nonzero;stroke:none;stroke-width:1" />
</svg>
